<svg width="93" height="92" viewBox="0 0 93 92" fill="none" xmlns="http://www.w3.org/2000/svg">
<path d="M92.9409 46C92.9409 71.4051 72.2853 92 46.8052 92C21.3252 92 0.669556 71.4051 0.669556 46C0.669556 20.5949 21.3252 0 46.8052 0C72.2853 0 92.9409 20.5949 92.9409 46ZM11.1793 46C11.1793 65.6178 27.1296 81.5212 46.8052 81.5212C66.4809 81.5212 82.4312 65.6178 82.4312 46C82.4312 26.3822 66.4809 10.4788 46.8052 10.4788C27.1296 10.4788 11.1793 26.3822 11.1793 46Z" fill="#F7F5FF"/>
<path fill-rule="evenodd" clip-rule="evenodd" d="M47 32.6667L60.3334 41.3334V50.6667L47 59.3334L33.6667 50.6667V41.3334L47 32.6667V32.6667Z" stroke="#1890FF" stroke-width="1.5" stroke-linecap="round" stroke-linejoin="round"/>
<path d="M47 59.3334V50.6667" stroke="#1890FF" stroke-width="1.5" stroke-linecap="round" stroke-linejoin="round"/>
<path d="M60.3334 41.3335L47 50.6668L33.6667 41.3335" stroke="#1890FF" stroke-width="1.5" stroke-linecap="round" stroke-linejoin="round"/>
<path d="M33.6667 50.6668L47 41.3335L60.3334 50.6668" stroke="#1890FF" stroke-width="1.5" stroke-linecap="round" stroke-linejoin="round"/>
<path d="M47 32.6667V41.3334" stroke="#1890FF" stroke-width="1.5" stroke-linecap="round" stroke-linejoin="round"/>
</svg>
