<svg width="51" height="48" viewBox="0 0 51 48" fill="none" xmlns="http://www.w3.org/2000/svg">
<path d="M19 46.6861L21.3709 47.9371L22.054 48L23 47.3431L21.4467 45.3569L20.4267 45L19 46.6861Z" fill="#282828"/>
<path d="M40 33.7878L42.093 35L43.1426 34.9724L44 34.4843L42.4467 32.3784L41.4267 32L40 33.7878Z" fill="#282828"/>
<path d="M49.8142 25.5013L34.1484 16.2557C34.136 16.2484 34.123 16.2423 34.1094 16.2373L49.7751 25.483C49.7888 25.4879 49.8018 25.4941 49.8142 25.5013Z" fill="#2B2F35"/>
<path d="M49.775 25.4831L34.1093 16.2374C34.0985 16.2335 34.0872 16.2304 34.0756 16.228L49.7413 25.4737C49.753 25.476 49.7642 25.4792 49.775 25.4831Z" fill="#2D3137"/>
<path d="M49.7414 25.4736L34.0756 16.228C34.0666 16.2262 34.0573 16.2248 34.0479 16.2239L49.7136 25.4695C49.723 25.4704 49.7323 25.4717 49.7414 25.4736Z" fill="#2E3339"/>
<path d="M49.7136 25.4696L34.0478 16.2239C34.0396 16.2232 34.0313 16.2228 34.0228 16.2228L49.6886 25.4684C49.697 25.4684 49.7053 25.4689 49.7136 25.4696Z" fill="#30353B"/>
<path d="M49.6886 25.4683L34.0228 16.2227C34.0153 16.2227 34.0078 16.2229 34.0001 16.2234L49.6659 25.469C49.6735 25.4686 49.6811 25.4683 49.6886 25.4683Z" fill="#33383D"/>
<path d="M49.666 25.4691L34.0002 16.2234C33.9931 16.2239 33.986 16.2247 33.9788 16.2256L49.6445 25.4714C49.6518 25.4703 49.6589 25.4696 49.666 25.4691Z" fill="#33393F"/>
<path d="M49.6445 25.4714L33.9788 16.2257C33.9718 16.2267 33.9648 16.2278 33.9578 16.2292L49.6235 25.4748C49.6306 25.4735 49.6377 25.4723 49.6445 25.4714Z" fill="#353A41"/>
<path d="M49.6234 25.4748L33.9577 16.2291C33.9511 16.2304 33.9445 16.2319 33.938 16.2336L49.6037 25.4792C49.6103 25.4775 49.6169 25.476 49.6234 25.4748Z" fill="#373C43"/>
<path d="M49.6038 25.4793L33.9381 16.2336C33.9315 16.2353 33.9249 16.2371 33.9182 16.2392L49.584 25.4849C49.5906 25.4828 49.5973 25.481 49.6038 25.4793Z" fill="#393E45"/>
<path d="M49.5839 25.4849L33.9182 16.2393C33.9118 16.2412 33.9054 16.2434 33.8989 16.2456L49.5647 25.4913C49.5711 25.4889 49.5776 25.4868 49.5839 25.4849Z" fill="#3A4047"/>
<path d="M49.5646 25.4913L33.8989 16.2456C33.8924 16.2479 33.886 16.2504 33.8795 16.253L49.5453 25.4987C49.5517 25.496 49.5583 25.4936 49.5646 25.4913Z" fill="#3C4249"/>
<path d="M49.5453 25.4986L33.8795 16.2529C33.8732 16.2555 33.8667 16.2583 33.8604 16.2612L49.5261 25.5068C49.5326 25.504 49.5389 25.5012 49.5453 25.4986Z" fill="#3E434B"/>
<path d="M49.5261 25.5069L33.8603 16.2612C33.8538 16.2642 33.8474 16.2673 33.8408 16.2705L49.5066 25.5162C49.5132 25.5129 49.5197 25.5098 49.5261 25.5069Z" fill="#40454E"/>
<path d="M49.5067 25.5162L33.841 16.2705C33.8344 16.2738 33.828 16.2772 33.8213 16.2809L49.487 25.5265C49.4937 25.5229 49.5003 25.5194 49.5067 25.5162Z" fill="#424750"/>
<path d="M49.4871 25.5265L33.8212 16.2809L33.806 16.2894L49.4718 25.5352L49.4871 25.5265Z" fill="#424952"/>
<path d="M49.4718 25.5352L33.806 16.2894L33.6888 16.3582L49.3546 25.6039L49.4718 25.5352Z" fill="#484E58"/>
<path d="M49.3546 25.6039L33.6888 16.3583L10.2653 29.9106L25.931 39.1562L49.3546 25.6039Z" fill="#484E58"/>
<path d="M0 36.4918V38.3368C0.00967972 38.494 0.0579743 38.6018 0.144884 38.6608L15.8104 47.906C15.7234 47.8476 15.6751 47.7392 15.6751 47.582L15.6654 45.737C15.6654 45.4332 15.8781 45.0502 16.1486 44.8931L25.9287 39.1515L10.2632 29.9062L0.483154 35.6478C0.212538 35.8046 0 36.1779 0 36.4918Z" fill="#686868"/>
<path d="M16.1451 44.8941C15.8798 45.0497 15.6646 45.4282 15.6654 45.738L15.6705 47.5811C15.6713 47.8979 15.888 48.0236 16.1533 47.868L49.4801 28.5091C49.7454 28.3535 49.9607 27.9746 49.9598 27.6578L49.9547 25.8148C49.9539 25.5049 49.7372 25.3797 49.4719 25.5352L49.3547 25.6039L25.931 39.1562L16.1451 44.8941Z" fill="#4F4D4D"/>
<path d="M43.9295 31.0385C43.9489 31.0188 43.9586 31.0088 43.9778 30.9891V32.7852C43.9681 32.7852 43.9489 32.7852 43.9392 32.7756C43.9295 32.7756 43.9295 32.7756 43.9198 32.7756H43.8909C43.8812 32.7756 43.8812 32.7756 43.8715 32.7756C43.8619 32.7656 43.8522 32.7656 43.8329 32.7656L43.8232 32.756C43.8136 32.756 43.8039 32.756 43.7942 32.7459C43.7846 32.7459 43.7846 32.7459 43.7846 32.7459C43.7653 32.7363 43.7556 32.7263 43.7459 32.7263L43.7362 32.7166C43.7266 32.7166 43.717 32.7066 43.7073 32.697C43.7073 32.697 43.6976 32.697 43.6976 32.6874C43.6879 32.6874 43.6783 32.6773 43.6686 32.6673C43.6493 32.6577 43.6396 32.638 43.63 32.628C43.63 32.628 43.63 32.628 43.63 32.6183C43.6203 32.6087 43.6106 32.5987 43.601 32.5891C43.601 32.5891 43.601 32.5891 43.601 32.579C43.5914 32.5694 43.5817 32.5594 43.572 32.5397V32.5301C43.5623 32.52 43.5623 32.5104 43.5526 32.4908C43.5526 32.4908 43.5526 32.4908 43.5526 32.4807C43.5431 32.4711 43.5334 32.4514 43.5334 32.4319C43.5334 32.4319 43.5334 32.4319 43.5237 32.4218C43.5237 32.4122 43.5237 32.3926 43.514 32.3825C43.514 32.3729 43.514 32.3729 43.514 32.3634C43.5043 32.3533 43.5043 32.3337 43.5043 32.314C43.5043 32.3044 43.5043 32.3044 43.5043 32.3044C43.5043 32.2847 43.4947 32.2651 43.4947 32.2454V32.0882C43.4947 32.0686 43.4947 32.0489 43.5043 32.0293C43.5043 32.0196 43.5043 32.0196 43.5043 32.0196C43.5043 31.9899 43.5043 31.9703 43.514 31.9511C43.514 31.9411 43.514 31.9311 43.514 31.9311C43.514 31.9119 43.5237 31.8917 43.5237 31.8726C43.5237 31.8726 43.5237 31.8626 43.5334 31.8529C43.5334 31.8333 43.5431 31.8136 43.5431 31.794C43.5431 31.7839 43.5526 31.7743 43.5526 31.7743C43.5526 31.7546 43.5623 31.735 43.5623 31.7153C43.572 31.7153 43.572 31.7057 43.572 31.6957C43.5817 31.676 43.5914 31.6563 43.5914 31.6367C43.601 31.6271 43.601 31.6271 43.601 31.617C43.6106 31.5974 43.6106 31.5777 43.6203 31.5682C43.63 31.5581 43.63 31.5485 43.63 31.5385C43.6396 31.5188 43.6493 31.4992 43.659 31.4795V31.4699C43.6686 31.4502 43.6783 31.4306 43.6976 31.4109C43.6976 31.4008 43.6976 31.3912 43.7073 31.3912C43.717 31.3716 43.7266 31.3519 43.7362 31.3322V31.3226C43.7556 31.303 43.7653 31.2833 43.775 31.2636C43.7846 31.2536 43.7846 31.244 43.7846 31.244C43.7942 31.2243 43.8136 31.2047 43.8232 31.1946C43.8232 31.185 43.8232 31.185 43.8329 31.1755C43.8426 31.1554 43.8522 31.1362 43.8715 31.1165L43.8812 31.1065C43.8909 31.0868 43.9102 31.0772 43.9198 31.0576C43.9198 31.0481 43.9295 31.0481 43.9295 31.0385Z" fill="#929393"/>
<path d="M24.9319 26.5872L9.26611 17.3414L9.28152 22.8785L24.9473 32.1241L24.9319 26.5872Z" fill="#B94234"/>
<path d="M24.8896 26.4952L9.22388 17.2495C9.23397 17.2554 9.24251 17.264 9.24927 17.2747L24.915 26.5203C24.9083 26.5096 24.8997 26.5012 24.8896 26.4952Z" fill="#7E2C23"/>
<path d="M24.915 26.5203L9.24915 17.2747L9.25466 17.2848L24.9205 26.5305L24.915 26.5203Z" fill="#812E24"/>
<path d="M24.9205 26.5304L9.25464 17.2848L9.25818 17.2931L24.9239 26.5388L24.9205 26.5304Z" fill="#853026"/>
<path d="M24.9239 26.5389L9.25818 17.2932L9.26057 17.3008L24.9264 26.5465L24.9239 26.5389Z" fill="#8B3227"/>
<path d="M24.9264 26.5464L9.2605 17.3008L9.26237 17.3081L24.9282 26.5537L24.9264 26.5464Z" fill="#903329"/>
<path d="M24.9283 26.5538L9.26245 17.3081L9.26391 17.315L24.9297 26.5606L24.9283 26.5538Z" fill="#95352B"/>
<path d="M24.9297 26.5606L9.26392 17.3149L9.26485 17.3216L24.9306 26.5673L24.9297 26.5606Z" fill="#9A362B"/>
<path d="M24.9305 26.5673L9.26477 17.3217L9.2654 17.3283L24.9312 26.574L24.9305 26.5673Z" fill="#9E382C"/>
<path d="M24.9314 26.5739L9.2655 17.3282L9.26592 17.3346L24.9317 26.5802L24.9314 26.5739Z" fill="#A33A2E"/>
<path d="M24.9316 26.5802L9.26587 17.3346L9.26608 17.341L24.9318 26.5867L24.9316 26.5802Z" fill="#A83B2F"/>
<path d="M24.9319 26.5867L9.26611 17.3411V17.3413L24.9319 26.5871V26.5868" fill="#AC3C30"/>
<path d="M24.8897 26.4952L9.22382 17.2495L9.21216 17.244L24.8779 26.4897L24.8897 26.4952Z" fill="#24282D"/>
<path d="M24.8779 26.4897L9.21212 17.2441L9.20203 17.2412L24.8678 26.487L24.8779 26.4897Z" fill="#26292E"/>
<path d="M24.8678 26.4869L9.20207 17.2412L9.19385 17.24L24.8597 26.4856L24.8678 26.4869Z" fill="#272B30"/>
<path d="M24.8597 26.4856L9.19383 17.2399L9.18665 17.2396L24.8524 26.4853L24.8597 26.4856Z" fill="#292C32"/>
<path d="M24.8524 26.4853L9.18668 17.2396L9.17981 17.2398L24.8457 26.4855L24.8524 26.4853Z" fill="#2A2E34"/>
<path d="M24.8456 26.4855L9.17974 17.2399L9.17371 17.2405L24.8395 26.4862L24.8456 26.4855Z" fill="#2B2F35"/>
<path d="M24.8395 26.4861L9.17374 17.2405L9.1676 17.2414L24.8335 26.4872L24.8395 26.4861Z" fill="#2D3137"/>
<path d="M24.8334 26.4872L9.16759 17.2415L9.16187 17.2428L24.8276 26.4885L24.8334 26.4872Z" fill="#2E3239"/>
<path d="M24.8276 26.4884L9.16185 17.2428L9.15613 17.2444L24.8219 26.49L24.8276 26.4884Z" fill="#30343A"/>
<path d="M24.8219 26.49L9.15613 17.2444L9.15051 17.2462L24.8164 26.4919L24.8219 26.49Z" fill="#31353C"/>
<path d="M24.8164 26.492L9.15054 17.2462L9.14502 17.2484L24.8108 26.4941L24.8164 26.492Z" fill="#32373E"/>
<path d="M24.8108 26.4941L9.14504 17.2484L9.13953 17.2507L24.8053 26.4964L24.8108 26.4941Z" fill="#343940"/>
<path d="M24.8053 26.4964L9.13953 17.2507L9.13391 17.2535L24.7997 26.4991L24.8053 26.4964Z" fill="#353A41"/>
<path d="M24.7996 26.4992L9.1339 17.2535L9.12817 17.2565L24.7939 26.5021L24.7996 26.4992Z" fill="#383C44"/>
<path d="M24.7939 26.5021L9.12815 17.2565L9.12378 17.259L24.7895 26.5047L24.7939 26.5021Z" fill="#383D46"/>
<path d="M10.2246 14.2815L10.2633 29.9063L25.9289 39.1517L25.8902 23.527C25.8902 23.0366 26.158 22.4648 26.5313 22.0798L10.866 12.8344C10.4924 13.2188 10.2246 13.7912 10.2246 14.2815Z" fill="#D7D7D7"/>
<path d="M33.357 0.0930068C33.1734 -0.0148105 32.9319 -0.00498006 32.6517 0.162242L11.2007 12.5545C11.0817 12.6257 10.9711 12.7258 10.8658 12.8342L26.5312 22.0796C26.6364 21.9713 26.7472 21.871 26.8661 21.7999L48.3171 9.40715C48.5973 9.24046 48.8487 9.23063 49.0226 9.33897L33.357 0.0930068Z" fill="#E8E8E8"/>
<path d="M26.8653 21.8043C26.3223 22.1226 25.8857 22.8979 25.8875 23.5316L25.9311 39.1562L49.3546 25.6039L49.311 9.97925C49.3093 9.34567 48.8697 9.08416 48.3206 9.40613L26.8653 21.8043Z" fill="#BFBFBF"/>
<path d="M24.8058 32.3659L9.14008 23.1202L2.46399 27.0346L18.1297 36.2803L24.8058 32.3659Z" fill="#CE493A"/>
<path d="M18.1297 36.2803L2.46397 27.0347L2.45044 27.0424L18.1163 36.288L18.1297 36.2803Z" fill="#C04335"/>
<path d="M18.1162 36.288L2.45038 27.0424C2.44455 27.0455 2.43883 27.0486 2.43311 27.0514L18.0989 36.2971C18.1047 36.2942 18.1104 36.2912 18.1162 36.288Z" fill="#BB4234"/>
<path d="M18.099 36.2972L2.4331 27.0515C2.42738 27.0544 2.42176 27.0571 2.41614 27.0597L18.0819 36.3053C18.0875 36.3028 18.0932 36.3 18.099 36.2972Z" fill="#B64033"/>
<path d="M18.0819 36.3052L2.41617 27.0596C2.41055 27.0621 2.40493 27.0645 2.39941 27.0668L18.0652 36.3124C18.0707 36.3102 18.0763 36.3078 18.0819 36.3052Z" fill="#B13E32"/>
<path d="M18.0651 36.3124L2.39938 27.0668C2.39386 27.069 2.38835 27.0711 2.38293 27.0731L18.0487 36.3188C18.0541 36.3168 18.0596 36.3146 18.0651 36.3124Z" fill="#AC3C30"/>
<path d="M18.0487 36.3188L2.38299 27.073C2.37737 27.075 2.37185 27.0768 2.36633 27.0785L18.0321 36.3241C18.0376 36.3226 18.0431 36.3208 18.0487 36.3188Z" fill="#A83B2F"/>
<path d="M18.0321 36.3243L2.36637 27.0786C2.36075 27.0803 2.35513 27.0819 2.34961 27.0833L18.0154 36.3289C18.0209 36.3275 18.0265 36.326 18.0321 36.3243Z" fill="#A33A2E"/>
<path d="M18.0153 36.3289L2.34945 27.0833C2.34394 27.0846 2.33842 27.0859 2.33301 27.087L17.9988 36.3326C18.0043 36.3315 18.0097 36.3304 18.0153 36.3289Z" fill="#9E382C"/>
<path d="M17.9988 36.3326L2.33307 27.0869C2.32703 27.0881 2.321 27.0891 2.31506 27.0899L17.9808 36.3355C17.9867 36.3348 17.9928 36.3338 17.9988 36.3326Z" fill="#9A362B"/>
<path d="M17.9808 36.3357L2.31508 27.0901C2.30914 27.0909 2.30331 27.0915 2.29749 27.0919L17.9632 36.3375C17.9691 36.3371 17.975 36.3365 17.9808 36.3357Z" fill="#95352B"/>
<path d="M17.9633 36.3374L2.2975 27.0918C2.29084 27.0922 2.28429 27.0924 2.27783 27.0924L17.9436 36.3381C17.95 36.3381 17.9566 36.3379 17.9633 36.3374Z" fill="#903329"/>
<path d="M17.9436 36.3382L2.27785 27.0925C2.27119 27.0925 2.26463 27.0922 2.25818 27.0916L17.9239 36.3372C17.9304 36.3377 17.9369 36.3382 17.9436 36.3382Z" fill="#8B3227"/>
<path d="M17.9239 36.3371L2.25816 27.0915C2.24993 27.0907 2.24192 27.0896 2.23401 27.0879L17.8998 36.3335C17.9076 36.3352 17.9157 36.3364 17.9239 36.3371Z" fill="#853026"/>
<path d="M17.8998 36.3336L2.23405 27.088C2.22416 27.086 2.21459 27.0832 2.20532 27.0798L17.8711 36.3255C17.8803 36.3289 17.8899 36.3316 17.8998 36.3336Z" fill="#812E24"/>
<path d="M17.871 36.3255L2.20528 27.0798C2.19403 27.0757 2.18342 27.0706 2.17322 27.0647L17.839 36.3103C17.8492 36.3163 17.8599 36.3213 17.871 36.3255Z" fill="#7E2C23"/>
<path d="M17.7635 35.7883L2.09779 26.5426L2.0929 26.557L17.7587 35.8026L17.7635 35.7883Z" fill="#424751"/>
<path d="M17.7588 35.8027L2.09296 26.557C2.09036 26.5649 2.08786 26.5727 2.08557 26.5805L17.7513 35.8261C17.7537 35.8184 17.7562 35.8106 17.7588 35.8027Z" fill="#404650"/>
<path d="M17.7513 35.8261L2.08552 26.5804C2.08323 26.5882 2.08094 26.5959 2.07886 26.6036L17.7446 35.8492C17.7468 35.8416 17.749 35.8339 17.7513 35.8261Z" fill="#40444D"/>
<path d="M17.7448 35.8493L2.07891 26.6036C2.07683 26.6115 2.07475 26.6192 2.07288 26.6268L17.7386 35.8724C17.7406 35.8648 17.7426 35.8571 17.7448 35.8493Z" fill="#3E434C"/>
<path d="M17.7387 35.8725L2.07295 26.6268C2.07108 26.6345 2.06931 26.6421 2.06775 26.6497L17.7335 35.8953C17.7351 35.8878 17.7368 35.8802 17.7387 35.8725Z" fill="#3D414A"/>
<path d="M17.7336 35.8953L2.06771 26.6497C2.06615 26.6572 2.06459 26.6646 2.06323 26.6719L17.729 35.9175C17.7304 35.9102 17.7319 35.9028 17.7336 35.8953Z" fill="#3B4048"/>
<path d="M17.7291 35.9175L2.06334 26.6719C2.06198 26.6792 2.06073 26.6864 2.05969 26.6934L17.7254 35.9391C17.7265 35.932 17.7277 35.9248 17.7291 35.9175Z" fill="#393E47"/>
<path d="M17.7254 35.9391L2.05954 26.6934C2.05839 26.7004 2.05746 26.7075 2.05652 26.7145L17.7223 35.9601C17.7232 35.9533 17.7242 35.9462 17.7254 35.9391Z" fill="#383D46"/>
<path d="M17.7224 35.9602L2.05661 26.7146C2.05578 26.7216 2.05495 26.7284 2.05432 26.7352L17.7201 35.9809C17.7208 35.9741 17.7215 35.9672 17.7224 35.9602Z" fill="#383C44"/>
<path d="M17.72 35.9809L2.0543 26.7352C2.05367 26.742 2.05315 26.7488 2.05273 26.7554L17.7185 36.0011C17.7189 35.9944 17.7194 35.9877 17.72 35.9809Z" fill="#353A41"/>
<path d="M17.7186 36.0011L2.05282 26.7555C2.0524 26.7623 2.05209 26.7689 2.05188 26.7755L17.7176 36.0211C17.7178 36.0146 17.7181 36.0079 17.7186 36.0011Z" fill="#343940"/>
<path d="M17.7176 36.021L2.05188 26.7754C2.05168 26.782 2.05157 26.7887 2.05168 26.7953L17.7174 36.0409C17.7174 36.0344 17.7174 36.0278 17.7176 36.021Z" fill="#32373E"/>
<path d="M17.7174 36.0409L2.05164 26.7953C2.05164 26.8018 2.05184 26.8083 2.05205 26.8146L17.7178 36.0603C17.7176 36.0539 17.7174 36.0475 17.7174 36.0409Z" fill="#31353C"/>
<path d="M17.7178 36.0605L2.052 26.8147C2.05231 26.8215 2.05273 26.8282 2.05325 26.8349L17.719 36.0805C17.7185 36.074 17.7181 36.0672 17.7178 36.0605Z" fill="#30343A"/>
<path d="M17.7191 36.0805L2.05334 26.8348C2.05387 26.8415 2.05459 26.8481 2.05532 26.8545L17.7211 36.1001C17.7203 36.0937 17.7196 36.0871 17.7191 36.0805Z" fill="#2E3239"/>
<path d="M17.7212 36.1001L2.0553 26.8545C2.05613 26.8615 2.05717 26.8682 2.05832 26.8749L17.7241 36.1205C17.723 36.1139 17.722 36.1071 17.7212 36.1001Z" fill="#2D3137"/>
<path d="M17.7242 36.1205L2.05835 26.8749C2.0596 26.8819 2.06095 26.8888 2.06241 26.8955L17.7282 36.1411C17.7267 36.1345 17.7253 36.1276 17.7242 36.1205Z" fill="#2B2F35"/>
<path d="M17.7282 36.1413L2.0625 26.8955C2.06417 26.9029 2.06604 26.9102 2.06812 26.9172L17.7339 36.1628C17.7318 36.1559 17.7299 36.1487 17.7282 36.1413Z" fill="#2A2E34"/>
<path d="M17.7337 36.1629L2.06799 26.9172C2.07018 26.9248 2.07268 26.9324 2.07528 26.9395L17.741 36.1852C17.7384 36.178 17.736 36.1705 17.7337 36.1629Z" fill="#292C32"/>
<path d="M17.741 36.1852L2.0752 26.9395C2.07842 26.9483 2.08196 26.9568 2.08581 26.965L17.7516 36.2107C17.7478 36.2025 17.7443 36.194 17.741 36.1852Z" fill="#272B30"/>
<path d="M17.7517 36.2107L2.08594 26.9651C2.09083 26.9754 2.09624 26.9852 2.10207 26.9944L17.7678 36.24C17.762 36.2308 17.7566 36.2211 17.7517 36.2107Z" fill="#26292E"/>
<path d="M17.7679 36.24L2.10205 26.9944C2.1211 27.0243 2.14504 27.0481 2.17324 27.0647L17.839 36.3103C17.8109 36.2937 17.7868 36.2701 17.7679 36.24Z" fill="#24282D"/>
<path d="M0.628174 28.1007L0.647533 35.5498L16.3131 44.795L16.2937 37.3459C16.2937 37.1887 16.3226 37.0315 16.3807 36.8552L0.715187 27.61C0.657213 27.7863 0.628174 27.9435 0.628174 28.1007H0.628174Z" fill="#EF5A5A"/>
<path d="M24.7894 26.5047L9.12365 17.259L4.65027 19.8818L20.316 29.1276L24.7894 26.5047Z" fill="#3D414A"/>
<path d="M19.9466 29.604L4.28083 20.3584L2.0979 26.5427L17.7636 35.7883L19.9466 29.604Z" fill="#424851"/>
<path d="M20.3161 29.1276L4.65032 19.8818L4.64636 19.8843L20.3121 29.1299L20.3161 29.1276Z" fill="#383D46"/>
<path d="M20.3122 29.1299L4.64646 19.8843C4.64074 19.8877 4.63502 19.8913 4.62939 19.8948L20.2951 29.1405C20.3008 29.1369 20.3065 29.1333 20.3122 29.1299Z" fill="#393E47"/>
<path d="M20.2952 29.1405L4.6293 19.8949C4.62347 19.8987 4.61765 19.9026 4.61182 19.9066L20.2776 29.1523C20.2834 29.1483 20.2892 29.1444 20.2952 29.1405Z" fill="#3B4048"/>
<path d="M20.2776 29.1524L4.61177 19.9066C4.60584 19.9107 4.5998 19.9151 4.59387 19.9195L20.2596 29.1652C20.2657 29.1608 20.2716 29.1565 20.2776 29.1524Z" fill="#3D414A"/>
<path d="M20.2598 29.1652L4.59402 19.9196C4.58788 19.9241 4.58184 19.9289 4.57581 19.9336L20.2416 29.1793C20.2476 29.1745 20.2536 29.1699 20.2598 29.1652Z" fill="#3E434C"/>
<path d="M20.2415 29.1794L4.57578 19.9337C4.56953 19.9387 4.56339 19.9439 4.55725 19.949L20.223 29.1947C20.2291 29.1894 20.2353 29.1843 20.2415 29.1794Z" fill="#40444D"/>
<path d="M20.2229 29.1946L4.55719 19.949C4.55094 19.9544 4.5447 19.9599 4.53845 19.9656L20.2042 29.2112C20.2104 29.2055 20.2167 29.2 20.2229 29.1946Z" fill="#404650"/>
<path d="M20.2043 29.2112L4.53844 19.9655C4.5322 19.9712 4.52606 19.977 4.52002 19.9829L20.1858 29.2285C20.1919 29.2226 20.1981 29.2168 20.2043 29.2112Z" fill="#424751"/>
<path d="M20.1858 29.2287L4.5201 19.9829C4.51406 19.9887 4.50813 19.9947 4.5022 20.0009L20.1679 29.2465C20.1739 29.2405 20.1798 29.2345 20.1858 29.2287Z" fill="#434953"/>
<path d="M20.168 29.2466L4.50216 20.001C4.49643 20.007 4.49061 20.0131 4.48499 20.0193L20.1507 29.2649C20.1565 29.2588 20.1622 29.2527 20.168 29.2466Z" fill="#454A55"/>
<path d="M20.1507 29.2649L4.48493 20.0192C4.47931 20.0253 4.4738 20.0315 4.46838 20.0379L20.1341 29.2835C20.1396 29.2772 20.1452 29.2709 20.1507 29.2649Z" fill="#464C56"/>
<path d="M20.1342 29.2836L4.4684 20.038C4.46299 20.0443 4.45758 20.0506 4.45227 20.0572L20.118 29.3029C20.1233 29.2963 20.1287 29.29 20.1342 29.2836Z" fill="#5C626B"/>
<path d="M20.118 29.3028L4.45215 20.057C4.44663 20.0637 4.44122 20.0705 4.43591 20.0774L20.1017 29.3231C20.1071 29.3162 20.1125 29.3094 20.118 29.3028Z" fill="#656A73"/>
<path d="M20.1019 29.3231L4.43601 20.0774C4.42997 20.0851 4.42404 20.093 4.41821 20.1011L20.084 29.3467C20.0899 29.3388 20.0958 29.3309 20.1019 29.3231Z" fill="#6D7279"/>
<path d="M20.084 29.3468L4.41818 20.1011C4.40944 20.113 4.4009 20.1253 4.39258 20.1379L20.0583 29.3835C20.0667 29.371 20.0753 29.3588 20.084 29.3468Z" fill="#72777F"/>
<path d="M20.0584 29.3836L4.39252 20.1379C4.38034 20.1562 4.36868 20.175 4.35754 20.1943L20.0233 29.4399C20.0345 29.4207 20.0462 29.4019 20.0584 29.3836Z" fill="#787C83"/>
<path d="M20.0235 29.4399L4.35771 20.1942C4.35053 20.2067 4.34356 20.2194 4.33679 20.2322L20.0025 29.4778C20.0093 29.465 20.0163 29.4523 20.0235 29.4399Z" fill="#72777F"/>
<path d="M20.0025 29.4778L4.33676 20.2322C4.33228 20.2406 4.32802 20.2491 4.32385 20.2577L19.9896 29.5033C19.9938 29.4947 19.9981 29.4863 20.0025 29.4778Z" fill="#6D7279"/>
<path d="M19.9896 29.5033L4.32385 20.2577C4.32021 20.2651 4.31667 20.2726 4.31323 20.2801L19.979 29.5257C19.9824 29.5182 19.986 29.5108 19.9896 29.5033Z" fill="#656A73"/>
<path d="M19.9789 29.5257L4.31318 20.28C4.30996 20.287 4.30683 20.2941 4.30371 20.3012L19.9695 29.5468C19.9726 29.5397 19.9757 29.5327 19.9789 29.5257Z" fill="#5C626B"/>
<path d="M19.9695 29.5469L4.30366 20.3013C4.30065 20.3081 4.29773 20.315 4.29492 20.322L19.9607 29.5676C19.9636 29.5607 19.9665 29.5538 19.9695 29.5469Z" fill="#464C56"/>
<path d="M19.9608 29.5675L4.29495 20.3219C4.29203 20.3289 4.28933 20.336 4.28662 20.3429L19.9524 29.5886C19.9551 29.5815 19.9579 29.5745 19.9608 29.5675Z" fill="#454A55"/>
<path d="M19.9524 29.5887L4.28661 20.343L4.28088 20.3585L19.9466 29.6041L19.9524 29.5887Z" fill="#434953"/>
<path fill-rule="evenodd" clip-rule="evenodd" d="M19.7642 28.4487C19.4803 28.6151 19.2155 28.9578 19.0807 29.3327L16.3824 36.8576C16.321 37.0306 16.2906 37.1928 16.291 37.344L16.3118 44.7964L25.9312 39.1562L25.8912 24.8562L19.7642 28.4487ZM24.8059 32.3658L18.1298 36.2803C17.8213 36.4613 17.6227 36.1953 17.7636 35.7881L19.9465 29.6039C20.0201 29.4018 20.1618 29.2178 20.316 29.1274L24.7894 26.5044C24.8697 26.4574 24.9316 26.5005 24.9318 26.5869L24.9473 32.1239C24.9476 32.2107 24.8861 32.3187 24.8059 32.3658Z" fill="#DD454D"/>
<path d="M19.9466 29.604C20.0201 29.4022 20.1618 29.2181 20.316 29.1277L24.5263 26.6592L24.5411 31.9273C24.5413 32.0141 24.4798 32.1223 24.3995 32.1694L17.7244 36.0833C17.7163 35.9985 17.7246 35.9011 17.7636 35.7886L19.9466 29.604Z" fill="#39414D"/>
<path d="M3.41138 20.0918L19.0769 29.337C19.2122 28.9546 19.4828 28.6109 19.7631 28.4437L25.8901 24.8519L10.2246 15.6067L4.0976 19.1985C3.8173 19.3653 3.54668 19.7088 3.41138 20.0918H3.41138Z" fill="#EF5A5A"/>
<path d="M19.0807 29.3328L3.4148 20.0872L0.716553 27.6121L16.3823 36.8577L19.0807 29.3328Z" fill="#BC2B3B"/>
<path d="M4.53479 21.8832L17.8967 29.7683L16.1067 34.758L2.74487 26.8728L4.53479 21.8832Z" fill="#39414D"/>
<path d="M2.74477 26.8728L16.1066 34.7581L15.8693 35.4199L1.90076 27.1762L2.74477 26.8728Z" fill="#EF5A5A"/>
<path d="M3.92798 21.5247L4.53468 21.8831L2.74477 26.8727L1.90076 27.1761L3.92798 21.5247Z" fill="#DD454D"/>
<path fill-rule="evenodd" clip-rule="evenodd" d="M23.291 46.2568C24.42 45.6227 25.339 44.0815 25.3353 42.8127C25.3316 41.5507 24.4066 41.0378 23.2777 41.6719C22.1425 42.3093 21.2297 43.8544 21.2334 45.1163C21.2371 46.3851 22.1558 46.8944 23.291 46.2568ZM23.6444 44.6442C23.5354 44.761 23.4145 44.8602 23.2871 44.9317C22.8105 45.1994 22.4203 44.983 22.4189 44.4507C22.4173 43.9178 22.805 43.2647 23.2816 42.997C23.409 42.9254 23.53 42.8886 23.6393 42.8833C23.9389 42.8678 24.1488 43.0879 24.1499 43.4784C24.151 43.8687 23.9431 44.3233 23.6444 44.6442Z" fill="#686868"/>
<path d="M24.1518 43.4126V43.5461C24.1518 43.5461 24.1518 43.5559 24.142 43.5656V43.6226V43.6323C24.142 43.6515 24.1322 43.6706 24.1322 43.699V43.7088C24.1224 43.7373 24.1224 43.7563 24.1125 43.7755V43.7849C24.1027 43.8044 24.1027 43.8329 24.0929 43.8521V43.8614C24.083 43.8903 24.083 43.9095 24.0732 43.9286C24.0732 43.9286 24.0732 43.938 24.0635 43.938C24.0635 43.9571 24.0536 43.9855 24.0438 44.0052C24.0438 44.0146 24.0438 44.0146 24.0339 44.0146C24.0339 44.0435 24.0241 44.0621 24.0143 44.0812C24.0143 44.0812 24.0143 44.091 24.0045 44.091C23.9947 44.1102 23.9848 44.1386 23.975 44.1676C23.9652 44.1867 23.9456 44.2059 23.9358 44.2343V44.2441C23.9062 44.2823 23.8768 44.3299 23.8473 44.3775V44.3873C23.8179 44.4256 23.7884 44.4731 23.759 44.5114C23.7491 44.5212 23.7491 44.5212 23.7491 44.5212C23.7196 44.559 23.6803 44.5973 23.6508 44.6355C23.6508 44.6453 23.6508 44.6453 23.6411 44.6453V44.6547L23.6116 44.6836C23.6017 44.6836 23.6017 44.693 23.5919 44.693C23.5919 44.7023 23.5821 44.7121 23.5723 44.7219C23.5625 44.7219 23.5625 44.7313 23.5526 44.7313L23.4839 44.7979C23.474 44.7979 23.474 44.8077 23.4642 44.8077C23.4545 44.8171 23.4446 44.8269 23.4348 44.8269C23.4348 44.8362 23.4249 44.8362 23.4249 44.846C23.4151 44.846 23.4053 44.8554 23.3955 44.8651C23.3857 44.8651 23.3857 44.8745 23.3759 44.8745C23.366 44.8843 23.3562 44.8843 23.3463 44.8937L23.3365 44.9034C23.3169 44.9128 23.3071 44.9226 23.2874 44.9319C22.806 45.1997 22.4229 44.9795 22.4229 44.4542C22.4132 43.9191 22.806 43.269 23.2776 43.0018C23.2972 42.9924 23.3169 42.9826 23.3268 42.9733C23.3365 42.9733 23.3365 42.9635 23.3463 42.9635C23.3562 42.9635 23.366 42.9541 23.3759 42.9541C23.3759 42.9443 23.3857 42.9443 23.3857 42.9443C23.3955 42.9443 23.4053 42.935 23.4151 42.935C23.4249 42.935 23.4249 42.9252 23.4348 42.9252C23.4446 42.9252 23.4545 42.9158 23.4642 42.9158H23.474C23.4839 42.9061 23.4937 42.9061 23.5134 42.9061C23.533 42.8967 23.5428 42.8967 23.5526 42.8967C23.5821 42.8869 23.6116 42.8869 23.6411 42.8869C23.7098 42.8776 23.7785 42.8869 23.8473 42.9158C23.8768 42.9252 23.9062 42.9443 23.9358 42.9634C23.9456 42.9732 23.9553 42.9825 23.975 42.9923C23.9848 43.0017 23.9947 43.0114 24.0045 43.0301C24.0143 43.0399 24.0241 43.0496 24.0339 43.0684H24.0438C24.0536 43.0879 24.0536 43.0973 24.0635 43.1164H24.0732C24.0732 43.1356 24.083 43.1449 24.0929 43.1547V43.1641C24.1027 43.1832 24.1027 43.2024 24.1125 43.2215C24.1224 43.2406 24.1224 43.2504 24.1224 43.269C24.1224 43.2788 24.1322 43.2788 24.1322 43.2788C24.1322 43.298 24.1322 43.3171 24.142 43.3362V43.4029L24.1518 43.4126Z" fill="#888888"/>
<path fill-rule="evenodd" clip-rule="evenodd" d="M23.2947 47.5324C25.0572 46.5427 26.4763 44.1449 26.4706 42.1751C26.4648 40.2122 25.0363 39.4132 23.2739 40.403C21.5115 41.3927 20.0861 43.7944 20.0918 45.7573C20.0977 47.7271 21.5323 48.5222 23.2947 47.5324ZM25.3353 42.8126C25.339 44.0815 24.42 45.6227 23.291 46.2568C22.1558 46.8943 21.237 46.3851 21.2334 45.1162C21.2297 43.8542 22.1425 42.3093 23.2777 41.6717C24.4066 41.0378 25.3316 41.5507 25.3353 42.8126Z" fill="#3D3D3D"/>
<path fill-rule="evenodd" clip-rule="evenodd" d="M44.7779 35.6444C46.5341 34.6582 47.9594 32.2569 47.9537 30.2871C47.948 28.3241 46.5134 27.5287 44.7572 28.515C42.9947 29.5047 41.5694 31.9064 41.5751 33.8693C41.5808 35.8391 43.0155 36.6341 44.7779 35.6444ZM46.8122 30.9281C46.8159 32.197 45.9032 33.7347 44.7742 34.3688C43.639 35.0062 42.7203 34.497 42.7166 33.2282C42.713 31.9662 43.6256 30.4213 44.7609 29.7837C45.8899 29.1497 46.8085 29.6662 46.8122 30.9281Z" fill="#3D3D3D"/>
<path d="M46.8114 30.9267C46.8114 32.1977 45.9076 33.7359 44.7779 34.3668C43.6384 35.0069 42.7248 34.5007 42.715 33.2297C42.715 31.9681 43.6286 30.4199 44.7582 29.7798C45.8879 29.1494 46.8114 29.665 46.8114 30.9267Z" fill="#686868"/>
<path d="M24.1854 31.9448L24.1699 27.2096L24.446 27.0709C24.5302 27.0287 24.5952 27.0675 24.5954 27.145L24.6116 32.1218C24.6117 32.1628 24.5925 32.208 24.5633 32.2489L24.1535 32.0361C24.1692 32.0056 24.1854 31.9741 24.1854 31.9448Z" fill="#BC2B3B"/>
<path d="M24.0368 32.1624C24.0894 32.1361 24.1271 32.0875 24.1534 32.0363L24.5632 32.2491C24.537 32.2857 24.5029 32.3193 24.4631 32.3391L17.4569 35.8579C17.2228 35.9756 17.0539 35.879 17.0316 35.6805L24.0368 32.1624Z" fill="#EF5A5A"/>
<path d="M45 31.2447V31.3064C45 31.3064 45 31.3109 44.9943 31.3154V31.3417V31.3463C44.9943 31.3551 44.9887 31.364 44.9887 31.3771V31.3816C44.983 31.3948 44.983 31.4036 44.9773 31.4125V31.4168C44.9716 31.4258 44.9716 31.439 44.9659 31.4479V31.4522C44.9602 31.4656 44.9602 31.4744 44.9545 31.4833C44.9545 31.4833 44.9545 31.4876 44.9489 31.4876C44.9489 31.4964 44.9432 31.5096 44.9375 31.5187C44.9375 31.523 44.9375 31.523 44.9318 31.523C44.9318 31.5364 44.9261 31.545 44.9205 31.5538C44.9205 31.5538 44.9205 31.5583 44.9148 31.5583C44.9091 31.5672 44.9034 31.5803 44.8978 31.5937C44.8921 31.6026 44.8807 31.6114 44.8751 31.6246V31.6291C44.858 31.6468 44.841 31.6688 44.8239 31.6908V31.6953C44.8069 31.713 44.7898 31.735 44.7728 31.7527C44.7671 31.7572 44.7671 31.7572 44.7671 31.7572C44.75 31.7747 44.7273 31.7924 44.7103 31.8101C44.7103 31.8146 44.7103 31.8146 44.7046 31.8146V31.819L44.6876 31.8323C44.6819 31.8323 44.6819 31.8367 44.6762 31.8367C44.6762 31.841 44.6705 31.8455 44.6649 31.85C44.6592 31.85 44.6592 31.8544 44.6535 31.8544L44.6137 31.8852C44.608 31.8852 44.608 31.8897 44.6023 31.8897C44.5967 31.894 44.591 31.8986 44.5853 31.8986C44.5853 31.9029 44.5796 31.9029 44.5796 31.9074C44.5739 31.9074 44.5682 31.9117 44.5626 31.9163C44.5569 31.9163 44.5569 31.9206 44.5512 31.9206C44.5455 31.9251 44.5399 31.9251 44.5342 31.9294L44.5285 31.934C44.5172 31.9383 44.5115 31.9428 44.5001 31.9471C44.2217 32.071 44.0001 31.9691 44.0001 31.7263C43.9945 31.4788 44.2217 31.1783 44.4944 31.0547C44.5058 31.0504 44.5172 31.0459 44.5228 31.0415C44.5285 31.0415 44.5285 31.037 44.5342 31.037C44.5399 31.037 44.5455 31.0327 44.5512 31.0327C44.5512 31.0282 44.5569 31.0282 44.5569 31.0282C44.5626 31.0282 44.5682 31.0238 44.5739 31.0238C44.5796 31.0238 44.5796 31.0193 44.5853 31.0193C44.591 31.0193 44.5967 31.015 44.6023 31.015H44.608C44.6137 31.0105 44.6194 31.0105 44.6308 31.0105C44.6421 31.0061 44.6478 31.0061 44.6535 31.0061C44.6705 31.0016 44.6876 31.0016 44.7046 31.0016C44.7444 30.9973 44.7841 31.0016 44.824 31.015C44.841 31.0193 44.858 31.0282 44.8751 31.037C44.8808 31.0415 44.8864 31.0458 44.8978 31.0503C44.9035 31.0547 44.9092 31.0592 44.9149 31.0678C44.9205 31.0723 44.9262 31.0768 44.9319 31.0855H44.9376C44.9433 31.0945 44.9433 31.0989 44.949 31.1077H44.9546C44.9546 31.1166 44.9603 31.1209 44.966 31.1254V31.1298C44.9717 31.1386 44.9717 31.1475 44.9774 31.1563C44.9831 31.1652 44.9831 31.1697 44.9831 31.1783C44.9831 31.1828 44.9887 31.1828 44.9887 31.1828C44.9887 31.1917 44.9887 31.2005 44.9944 31.2094V31.2402L45 31.2447Z" fill="#888888"/>
<path d="M3.57275 34.9403C3.99051 35.172 4.32595 35.7302 4.32458 36.1914C4.32321 36.6591 3.98562 36.844 3.56776 36.6123C3.14999 36.3806 2.81455 35.8224 2.81592 35.3545C2.81739 34.8933 3.15499 34.7085 3.57275 34.9403Z" fill="#FEE44B"/>
<path fill-rule="evenodd" clip-rule="evenodd" d="M5.05788 35.8797C5.05837 35.7385 4.95422 35.5656 4.82658 35.4947L2.31971 34.1043C2.19208 34.0334 2.08724 34.0905 2.08685 34.2317L2.08264 35.673C2.08225 35.8141 2.1864 35.9871 2.31404 36.0579L4.8208 37.4484C4.94844 37.5192 5.05328 37.4621 5.05367 37.3209L5.05788 35.8797ZM4.32474 36.1914C4.32337 36.6593 3.98567 36.844 3.56791 36.6123C3.15015 36.3806 2.81471 35.8224 2.81608 35.3546C2.81745 34.8934 3.15504 34.7086 3.5729 34.9403C3.99066 35.172 4.32611 35.7302 4.32474 36.1914Z" fill="white"/>
<path d="M13.4854 40.4563C13.9031 40.688 14.2386 41.2463 14.2372 41.7074C14.2358 42.1752 13.8981 42.3601 13.4804 42.1284C13.0626 41.8966 12.7213 41.3352 12.7227 40.8674C12.724 40.4062 13.0675 40.2246 13.4854 40.4563Z" fill="#FEE44B"/>
<path fill-rule="evenodd" clip-rule="evenodd" d="M14.9705 41.3956C14.9709 41.2545 14.8667 41.0816 14.7391 41.0107L12.2323 39.6203C12.1047 39.5494 11.9998 39.6065 11.9995 39.7477L11.9952 41.1889C11.9948 41.3301 12.099 41.503 12.2266 41.5739L14.7334 42.9643C14.861 43.0352 14.9659 42.9781 14.9663 42.8369L14.9705 41.3956ZM14.2372 41.7074C14.2359 42.1752 13.8982 42.36 13.4804 42.1283C13.0626 41.8965 12.7213 41.3351 12.7228 40.8673C12.7242 40.4062 13.0676 40.2246 13.4854 40.4563C13.9032 40.688 14.2386 41.2462 14.2372 41.7074Z" fill="white"/>
</svg>
