<svg width="57" height="48" viewBox="0 0 57 48" fill="none" xmlns="http://www.w3.org/2000/svg">
<path d="M17.0114 43.1528C17.0114 43.9869 17.3144 44.5763 17.7971 44.8543L20.9623 46.6782C20.4796 46.4002 20.1766 45.8107 20.1766 44.9655C20.1653 43.2862 21.3663 41.2288 22.8479 40.3836C23.5887 39.9609 24.2734 39.9165 24.756 40.1945L21.5908 38.3817C21.1082 38.0926 20.4347 38.1371 19.6827 38.5597C18.2011 39.4049 17.0114 41.4624 17.0114 43.1528Z" fill="#363A44"/>
<path d="M23.8943 39.2126C23.8943 40.0467 24.1974 40.6361 24.68 40.9141L27.8452 42.738C27.3626 42.46 27.0595 41.8705 27.0595 41.0253C27.0483 39.3461 28.2492 37.2886 29.7308 36.4434C30.4716 36.0208 31.1563 35.9763 31.639 36.2543L28.4737 34.4415C27.9911 34.1524 27.3176 34.1969 26.5656 34.6195C25.084 35.4647 23.8943 37.5222 23.8943 39.2126Z" fill="#363A44"/>
<path d="M42.5957 26.1919L46.9553 23.7088C49.1306 22.5173 50.6025 22.8296 51.5518 24.262L55.4327 22.0419L55.4292 20.8235C55.4289 20.7022 55.5161 20.5525 55.6226 20.4916L56.4397 20.0242C56.718 19.865 56.9454 19.9922 56.9463 20.3091L56.9536 22.8575C56.9545 23.1744 56.7286 23.5622 56.4503 23.7214L14.1184 47.9377L14.1046 43.1133L42.4162 26.9175L42.5957 26.1919Z" fill="#525566"/>
<path d="M43.1165 30.3659L46.2817 32.1898C45.799 31.9118 45.496 31.3223 45.496 30.4771C45.4847 28.7978 46.6857 26.7404 48.1673 25.8952C48.9081 25.4725 49.5928 25.4281 50.0754 25.7061L46.9102 23.8933C46.4276 23.6042 45.7541 23.6487 45.0021 24.0713" fill="#363A44"/>
<path d="M48.1869 15.0303L56.7994 19.9894C56.7074 19.9365 56.5801 19.944 56.4397 20.0242L47.8273 15.0651C47.9676 14.9848 48.095 14.9773 48.1869 15.0303Z" fill="#5B5E71"/>
<path d="M55.4327 22.0419L46.8202 17.0828L46.8168 15.8644L55.4292 20.8235L55.4327 22.0419Z" fill="#5B5E71"/>
<path d="M55.6226 20.4917L47.0101 15.5325L47.8272 15.0651L56.4397 20.0242L55.6226 20.4917Z" fill="#5B5E71"/>
<path d="M55.4292 20.8235L46.8168 15.8643C46.8164 15.7431 46.9037 15.5934 47.0101 15.5325L55.6226 20.4916C55.5161 20.5525 55.4289 20.7022 55.4292 20.8235Z" fill="#5B5E71"/>
<path d="M51.5518 24.262L42.9393 19.3029L46.8202 17.0828L55.4327 22.0419L51.5518 24.262Z" fill="#5B5E71"/>
<path d="M41.9521 18.334L50.5646 23.2931C49.6676 22.7766 48.4855 22.8707 46.9554 23.7088L38.3429 18.7497C39.873 17.9115 41.0551 17.8175 41.9521 18.334Z" fill="#5B5E71"/>
<path d="M42.4162 26.9175L33.8037 21.9583L33.9833 21.2328L42.5958 26.1919L42.4162 26.9175Z" fill="#5B5E71"/>
<path d="M42.5958 26.1919L33.9833 21.2328L38.3429 18.7496L46.9554 23.7088L42.5958 26.1919Z" fill="#5B5E71"/>
<path d="M14.1047 43.1133L0.558716 35.3134L28.8703 19.1176L42.4162 26.9175L14.1047 43.1133Z" fill="#5B5E71"/>
<path d="M42.5957 26.1919L46.9553 23.7088C49.1306 22.5173 50.6025 22.8296 51.5518 24.262L55.4327 22.0419L55.4292 20.8235C55.4289 20.7022 55.5161 20.5525 55.6226 20.4916L56.4397 20.0242C56.718 19.865 56.9454 19.9922 56.9463 20.3091L56.9536 22.8575C56.9545 23.1744 56.7286 23.5622 56.4503 23.7214L14.1184 47.9377L14.1046 43.1133L42.4162 26.9175L42.5957 26.1919Z" fill="#525566"/>
<path d="M14.1185 47.9377L0.572515 40.1378L0.558716 35.3135L14.1047 43.1134L14.1185 47.9377Z" fill="#5B5E71"/>
<path d="M55.4717 14.2505L41.8093 6.38354L47.4209 8.83772L56.1497 13.8639L55.4717 14.2505Z" fill="#E74C3C"/>
<path d="M55.2011 14.1324L41.5387 6.26546L40.5935 1.81042L54.2558 9.67734L55.2011 14.1324Z" fill="#84DBFF"/>
<path d="M41.788 6.39264C41.7952 6.38992 41.8022 6.38688 41.8093 6.38354L55.4716 14.2505C55.4646 14.2538 55.4576 14.2568 55.4503 14.2596C52.5406 12.5842 44.6976 8.06805 41.788 6.39264Z" fill="#E74C3C"/>
<path d="M41.788 6.3927C44.6977 8.06811 52.5406 12.5842 55.4503 14.2596C55.4326 14.2662 55.4133 14.2712 55.3876 14.2747C52.4779 12.5993 44.6349 8.08318 41.7252 6.40777C41.751 6.40426 41.7703 6.39934 41.788 6.3927V6.3927Z" fill="#E74C3C"/>
<path d="M41.7252 6.40771C41.7297 6.40861 41.7346 6.41312 41.7386 6.41543C41.773 6.43526 46.741 9.29585 46.7754 9.31569C46.8143 9.33809 46.8533 9.36051 46.8922 9.38292C49.724 11.0135 52.5557 12.644 55.3875 14.2746C55.3788 14.2758 55.3694 14.2768 55.3591 14.2777L41.6968 6.41081C41.7071 6.40993 41.7165 6.4089 41.7252 6.40771V6.40771Z" fill="#E74C3C"/>
<path d="M55.2823 14.2575L41.62 6.39062C41.6425 6.40356 41.6684 6.41036 41.6968 6.41078L55.3591 14.2777C55.3307 14.2773 55.3048 14.2705 55.2823 14.2575Z" fill="#E74C3C"/>
<path d="M55.2795 14.2519L41.6171 6.38496C41.5761 6.3613 41.5503 6.32088 41.5387 6.2655L55.201 14.1324C55.2127 14.1878 55.2384 14.2282 55.2795 14.2519Z" fill="#84DBFF"/>
<path d="M54.552 9.09077L40.8896 1.22385L41.4105 0.925903L55.0728 8.79282L54.552 9.09077Z" fill="#84DBFF"/>
<path d="M54.2558 9.67743L40.5935 1.81051C40.5528 1.61853 40.6967 1.33425 40.8896 1.22388L54.5519 9.0908C54.359 9.20117 54.2151 9.48545 54.2558 9.67743Z" fill="#84DBFF"/>
<path d="M53.7895 7.98917C54.3685 7.74208 54.7597 7.89944 54.9903 8.39998L55.0728 8.79286L54.5519 9.09081C54.359 9.20118 54.2151 9.48547 54.2558 9.67744L55.201 14.1325C55.2206 14.2263 55.2804 14.2766 55.3591 14.2778C55.4127 14.2732 55.4416 14.2647 55.4716 14.2505L56.1496 13.864L56.3905 14.9995C56.4269 15.1674 56.4443 15.3498 56.4448 15.5419L56.4577 20.0205L55.6416 20.4874C55.5351 20.5483 55.4479 20.698 55.4482 20.8192L55.4517 22.0376L51.5697 24.2583C50.6215 22.8253 49.1496 22.5131 46.9733 23.7051L42.6148 26.1877L42.5829 15.0481C42.5819 14.6904 42.8351 14.2557 43.1493 14.076L53.7895 7.98917Z" fill="#D8463F"/>
<path d="M55.0728 8.79285L56.1497 13.8639L55.4981 14.2367C55.4936 14.2392 55.4892 14.2416 55.4848 14.244C55.4416 14.2647 55.4127 14.2732 55.3857 14.2764C55.2802 14.2765 55.2206 14.2257 55.201 14.1325L54.2558 9.67743C54.2152 9.48545 54.359 9.20117 54.5519 9.09079L55.0728 8.79285Z" fill="#84DBFF"/>
<path d="M40.9644 0.0962839C40.7475 -0.0285829 40.4703 -0.0241977 40.1272 0.122219L29.487 6.20903C29.1729 6.38876 28.9196 6.82339 28.9207 7.18111L28.9525 18.3207L42.6149 26.1876L42.583 15.048C42.582 14.6903 42.8352 14.2557 43.1494 14.0759L53.7896 7.98913C54.1327 7.84272 54.4098 7.83832 54.6267 7.9632L40.9644 0.0962839Z" fill="#E74C3C"/>
<path d="M14.2903 43.0459L0.0460731 34.8439L0 18.7395L14.2443 26.9415L14.2903 43.0459Z" fill="#E0E2E2"/>
<path d="M14.2443 26.9415L0 18.7395L28.1258 2.61023L42.3701 10.8122L14.2443 26.9415Z" fill="#ECF0F1"/>
<path d="M42.3701 10.8123L42.4162 26.9166L14.2903 43.0459L14.2443 26.9416L42.3701 10.8123Z" fill="#D4D6D6"/>
<path d="M45.0656 14.754C45.2185 14.6666 45.3423 14.7352 45.3428 14.9093L45.3551 19.2103C45.3556 19.3843 45.2326 19.5941 45.0797 19.6816L43.9695 20.3167C43.8177 20.4036 43.694 20.3349 43.6935 20.1608L43.6812 15.8598C43.6807 15.6858 43.8036 15.4759 43.9554 15.3891L45.0656 14.754Z" fill="#84DBFF"/>
<path d="M52.9324 10.8591C53.0453 10.7945 53.1425 10.8279 53.1671 10.94L54.2115 15.7123C54.2446 15.8628 54.1312 16.0888 53.9784 16.1763L53.1676 16.6401C52.6499 16.9362 52.1351 17.1249 51.6485 17.1965L50.3955 17.3794C49.9089 17.451 49.3951 17.6379 48.8764 17.9347L47.258 18.8605C47.1262 18.9358 47.0183 18.8761 47.0179 18.7249L47.0059 14.5223C47.0054 14.3723 47.1126 14.1883 47.2444 14.1129L52.9324 10.8591Z" fill="#84DBFF"/>
<path fill-rule="evenodd" clip-rule="evenodd" d="M54.916 16.127C54.9159 16.0897 54.9126 16.0544 54.9062 16.022L53.7454 10.0694C53.7069 9.87387 53.5388 9.8125 53.3448 9.92347L46.9451 13.5845C46.7427 13.7003 46.5798 13.9798 46.5804 14.2103L46.6057 23.0391C46.6438 23.0168 46.6818 22.9948 46.7197 22.9732C49.2001 21.5542 51.0542 21.5825 52.1267 23.4145L54.811 21.8789C54.8774 21.8409 54.932 21.7484 54.9318 21.6727L54.916 16.127ZM54.2115 15.7124C54.2446 15.8629 54.1312 16.0889 53.9783 16.1764L53.1676 16.6402C52.6499 16.9363 52.1351 17.125 51.6485 17.1966L50.3955 17.3795C49.9088 17.4511 49.3951 17.638 48.8764 17.9347L47.258 18.8605C47.1262 18.9359 47.0183 18.8762 47.0179 18.725L47.0058 14.5224C47.0054 14.3724 47.1126 14.1884 47.2444 14.113L52.9324 10.8591C53.0452 10.7946 53.1425 10.8279 53.1671 10.9401L54.2115 15.7124Z" fill="#C14242"/>
<path d="M44.6868 30.4702L51.5697 26.5422C51.2698 25.2971 50.3213 24.7268 49.3727 24.7268C48.8539 24.7268 48.3107 24.8874 47.7594 25.2006C46.0407 26.1888 44.6868 28.4942 44.6868 30.4702H44.6868Z" fill="#3F434F"/>
<path d="M48.1662 25.8967C46.69 26.7412 45.49 28.8006 45.4948 30.4814C45.4996 32.1703 46.7074 32.8524 48.1837 32.0079C49.6671 31.1592 50.8671 29.0998 50.8623 27.4109C50.8575 25.7301 49.6496 25.0481 48.1662 25.8967Z" fill="#525566"/>
<path fill-rule="evenodd" clip-rule="evenodd" d="M48.1915 31.3738C49.3335 30.7205 50.2509 29.1353 50.2472 27.8315C50.2435 26.5384 49.3169 26.0152 48.178 26.6632C47.0298 27.32 46.106 28.9004 46.1098 30.1984C46.1104 31.5146 47.037 32.0378 48.1915 31.3738ZM48.5929 27.5004C48.583 27.2997 48.573 27.0955 48.563 26.877C49.0877 26.737 49.4599 26.8585 49.7236 27.2557C49.6497 27.3176 49.5769 27.3788 49.5048 27.4395L49.5044 27.4397L49.5044 27.4397L49.5043 27.4398L49.5043 27.4398C49.2754 27.6323 49.0539 27.8187 48.8287 27.9989C48.8141 28.0105 48.8001 28.0201 48.7866 28.0278C48.6825 28.0874 48.6149 28.0313 48.6034 27.8929C48.599 27.808 48.5974 27.7199 48.5957 27.6323L48.5957 27.6323L48.5957 27.6322L48.5957 27.6322L48.5957 27.6321L48.5957 27.632L48.5957 27.632L48.5957 27.6319L48.5957 27.6319L48.5957 27.6318L48.5957 27.6317C48.5949 27.5877 48.5941 27.5437 48.5929 27.5004ZM47.7515 28.3411L47.7515 28.341C47.7631 28.0142 47.7746 27.6874 47.7893 27.3588L47.7736 27.3357C47.2592 27.783 46.8857 28.3347 46.6283 29.0264L46.6303 29.0258C46.8294 28.9686 47.0162 28.915 47.2029 28.8578C47.281 28.8345 47.3622 28.8094 47.4433 28.7807C47.4822 28.7687 47.517 28.7539 47.548 28.7362C47.679 28.6612 47.7419 28.5336 47.7515 28.3411ZM47.0541 30.777L47.0541 30.7771C47.0125 30.8822 46.9704 30.9885 46.928 31.0966C46.6243 30.8932 46.4702 30.5544 46.45 30.0429C46.5408 30.0298 46.6298 30.0154 46.7172 30.0012L46.7172 30.0012C46.8854 29.9739 47.0477 29.9475 47.206 29.9342C47.3091 29.925 47.35 30.0155 47.2879 30.1791C47.2124 30.3769 47.1342 30.5747 47.0541 30.777ZM49.1289 29.1295C49.1552 29.1763 49.1866 29.2158 49.2183 29.2555C49.2358 29.2774 49.2533 29.2994 49.2701 29.3227C49.336 29.406 49.4018 29.4893 49.4771 29.5815C49.7631 29.0443 49.8929 28.5501 49.9009 28.0439C49.8277 28.1209 49.7566 28.1954 49.6871 28.2683C49.5315 28.4313 49.3836 28.5863 49.2372 28.7438C49.1094 28.8809 49.0692 29.0284 49.1289 29.1295ZM48.8452 30.4661C48.6157 30.694 48.3954 30.8691 48.1768 30.9941C47.9768 31.1085 47.7783 31.1811 47.5753 31.2139C47.6149 31.1381 47.6535 31.0631 47.6917 30.9889L47.6918 30.9888L47.6918 30.9888C47.8098 30.7596 47.9241 30.5376 48.0509 30.3226C48.0819 30.2696 48.1553 30.2047 48.2132 30.1716C48.2426 30.1547 48.268 30.1461 48.2817 30.1515C48.4236 30.2108 48.5554 30.2911 48.6919 30.3741C48.7421 30.4047 48.793 30.4356 48.8452 30.4661ZM48.1801 28.5122L48.1748 28.5153C47.9337 28.6532 47.7253 29.0129 47.7323 29.288C47.7362 29.5611 47.9365 29.6693 48.1773 29.5316L48.183 29.5283C48.4264 29.389 48.6255 29.0439 48.6247 28.7668C48.6239 28.4933 48.4204 28.3748 48.1801 28.5122ZM48.0512 28.2337C48.051 28.1556 48.107 28.0559 48.1756 28.0167C48.2443 27.981 48.3006 28.0128 48.3008 28.0874C48.301 28.1655 48.2451 28.2616 48.1764 28.3009C48.1078 28.3402 48.0546 28.3101 48.0512 28.2337ZM48.5145 29.5842C48.5178 29.6605 48.5742 29.6888 48.6397 29.6513C48.7083 29.6121 48.7643 29.516 48.7641 29.4378C48.7639 29.3632 48.7076 29.3314 48.6389 29.3707L48.634 29.3734C48.5704 29.4097 48.5143 29.508 48.5145 29.5842ZM47.5446 29.2103C47.5448 29.2885 47.4888 29.3845 47.4233 29.422C47.3547 29.4613 47.2983 29.433 47.2981 29.3549C47.2948 29.2804 47.3509 29.1822 47.4173 29.1442L47.4225 29.1414C47.488 29.1039 47.5444 29.1357 47.5446 29.2103ZM48.9616 28.542C49.0302 28.5028 49.0831 28.4085 49.0828 28.3303C49.0826 28.2557 49.0263 28.2239 48.9608 28.2614L48.9556 28.2642C48.8893 28.3021 48.8361 28.3987 48.8364 28.4749C48.8397 28.5513 48.8929 28.5813 48.9616 28.542ZM47.7972 30.1333C47.7286 30.1725 47.6754 30.1425 47.672 30.0661C47.6718 29.9899 47.725 29.8934 47.7913 29.8554L47.7964 29.8526C47.862 29.8151 47.9183 29.8469 47.9185 29.9216C47.9187 29.9997 47.8659 30.094 47.7972 30.1333Z" fill="#ECF0F1"/>
<path d="M26.2504 41.0183L33.1333 37.0903C32.8334 35.8452 31.8849 35.2749 30.9363 35.2749C30.4175 35.2749 29.8743 35.4355 29.323 35.7487C27.6042 36.7369 26.2504 39.0423 26.2504 41.0183H26.2504Z" fill="#3F434F"/>
<path d="M29.7297 36.4449C28.2534 37.2894 27.0534 39.3489 27.0582 41.0296C27.0631 42.7185 28.2709 43.4006 29.7472 42.5561C31.2306 41.7075 32.4306 39.648 32.4257 37.9591C32.4209 36.2783 31.2131 35.5963 29.7297 36.4449Z" fill="#525566"/>
<path fill-rule="evenodd" clip-rule="evenodd" d="M29.7551 41.922C30.8971 41.2687 31.8145 39.6835 31.8108 38.3797C31.8071 37.0866 30.8805 36.5634 29.7416 37.2114C28.5934 37.8682 27.6696 39.4486 27.6734 40.7466C27.674 42.0628 28.6006 42.586 29.7551 41.922ZM30.1565 38.0486C30.1466 37.8479 30.1366 37.6437 30.1266 37.4252C30.6513 37.2852 31.0235 37.4068 31.2872 37.8039C31.2133 37.8658 31.1405 37.927 31.0684 37.9877L31.0681 37.988L31.068 37.988L31.068 37.988L31.0679 37.988C30.8391 38.1806 30.6175 38.3669 30.3924 38.5471C30.3777 38.5587 30.3637 38.5683 30.3502 38.576C30.2461 38.6356 30.1785 38.5795 30.167 38.4412C30.1626 38.3562 30.161 38.2681 30.1594 38.1805L30.1594 38.1805L30.1594 38.1804C30.1585 38.1362 30.1577 38.0921 30.1565 38.0486ZM29.3151 38.8894L29.3151 38.8893L29.3151 38.8892C29.3267 38.5624 29.3382 38.2356 29.3529 37.907L29.3372 37.8839C28.8228 38.3312 28.4494 38.8829 28.1919 39.5746L28.1935 39.5742C28.3927 39.5169 28.5796 39.4632 28.7665 39.406C28.8446 39.3827 28.9258 39.3576 29.007 39.329C29.0458 39.317 29.0806 39.3022 29.1116 39.2844C29.2426 39.2095 29.3055 39.0819 29.3151 38.8894ZM28.6177 41.3252C28.5761 41.4303 28.5341 41.5367 28.4916 41.6449C28.1879 41.4415 28.0338 41.1026 28.0136 40.5911C28.1044 40.5781 28.1934 40.5636 28.2808 40.5494L28.2808 40.5494L28.2809 40.5494L28.2809 40.5494L28.2809 40.5494H28.2809C28.449 40.5221 28.6113 40.4957 28.7696 40.4824C28.8727 40.4732 28.9136 40.5637 28.8516 40.7273C28.776 40.9251 28.6978 41.1229 28.6177 41.3252ZM30.6925 39.6777C30.7188 39.7246 30.7502 39.764 30.7819 39.8037L30.7819 39.8037C30.7994 39.8256 30.8169 39.8476 30.8337 39.871L30.8354 39.8731C30.9007 39.9557 30.9661 40.0384 31.0407 40.1297C31.3267 39.5925 31.4565 39.0983 31.4645 38.5921C31.3914 38.669 31.3204 38.7434 31.251 38.8161L31.2507 38.8164L31.2507 38.8165C31.0951 38.9795 30.9472 39.1345 30.8008 39.292C30.673 39.4291 30.6328 39.5767 30.6925 39.6777ZM30.4088 41.0143C30.1793 41.2422 29.959 41.4173 29.7404 41.5423C29.5405 41.6567 29.3419 41.7293 29.1389 41.7621C29.1785 41.6863 29.2171 41.6113 29.2554 41.537C29.3734 41.3079 29.4877 41.0858 29.6145 40.8709C29.6455 40.8178 29.7189 40.7529 29.7768 40.7198C29.8062 40.7029 29.8316 40.6943 29.8453 40.6997C29.9872 40.759 30.119 40.8393 30.2555 40.9224L30.2555 40.9224L30.2555 40.9224L30.2556 40.9224L30.2557 40.9224C30.3058 40.953 30.3566 40.9839 30.4088 41.0143ZM29.7438 39.0605L29.7385 39.0635C29.4973 39.2014 29.2889 39.5611 29.2959 39.8362C29.2998 40.1093 29.5001 40.2176 29.7409 40.0798L29.7467 40.0765C29.99 39.9373 30.1891 39.5921 30.1883 39.315C30.1875 39.0415 29.984 38.923 29.7438 39.0605ZM29.6148 38.782C29.6146 38.7038 29.6706 38.6042 29.7392 38.5649C29.8079 38.5292 29.8642 38.561 29.8644 38.6356C29.8646 38.7138 29.8087 38.8099 29.74 38.8491C29.6714 38.8884 29.6182 38.8583 29.6148 38.782ZM30.0781 40.1324C30.0814 40.2088 30.1378 40.237 30.2033 40.1996C30.2719 40.1603 30.3279 40.0642 30.3277 39.9861C30.3275 39.9115 30.2711 39.8796 30.2025 39.9189L30.1976 39.9216C30.134 39.9579 30.0779 40.0562 30.0781 40.1324ZM29.1082 39.7585C29.1084 39.8367 29.0524 39.9328 28.9869 39.9703C28.9183 40.0095 28.8619 39.9813 28.8617 39.9031C28.8584 39.8287 28.9145 39.7304 28.9809 39.6924L28.9861 39.6896C29.0516 39.6521 29.108 39.6839 29.1082 39.7585ZM30.5252 39.0903C30.5938 39.051 30.6467 38.9567 30.6464 38.8785C30.6462 38.804 30.5899 38.7721 30.5244 38.8096L30.5192 38.8125C30.4529 38.8504 30.3997 38.9469 30.4 39.0231C30.4033 39.0995 30.4565 39.1295 30.5252 39.0903ZM29.3608 40.6815C29.2922 40.7208 29.239 40.6907 29.2356 40.6143C29.2354 40.5382 29.2886 40.4416 29.3549 40.4037L29.36 40.4009C29.4256 40.3634 29.4819 40.3952 29.4821 40.4698C29.4824 40.5479 29.4295 40.6422 29.3608 40.6815Z" fill="#ECF0F1"/>
<path d="M19.3673 44.9586L26.2503 41.0307C25.9503 39.7855 25.0018 39.2152 24.0533 39.2152C23.5344 39.2152 22.9912 39.3758 22.44 39.689C20.7212 40.6772 19.3673 42.9826 19.3673 44.9586H19.3673Z" fill="#3F434F"/>
<path d="M22.8467 40.3851C21.3705 41.2296 20.1705 43.289 20.1753 44.9698C20.1801 46.6587 21.388 47.3408 22.8642 46.4963C24.3476 45.6477 25.5476 43.5882 25.5428 41.8993C25.538 40.2185 24.3302 39.5365 22.8467 40.3851Z" fill="#525566"/>
<path fill-rule="evenodd" clip-rule="evenodd" d="M22.872 45.8623C24.014 45.209 24.9314 43.6238 24.9277 42.32C24.924 41.0269 23.9974 40.5037 22.8585 41.1517C21.7103 41.8085 20.7866 43.3889 20.7903 44.6869C20.7909 46.0031 21.7175 46.5263 22.872 45.8623ZM23.2735 41.9889C23.2635 41.7882 23.2536 41.584 23.2436 41.3655C23.7682 41.2255 24.1405 41.3471 24.4041 41.7442C24.3302 41.8061 24.2574 41.8673 24.1853 41.928L24.185 41.9283L24.185 41.9283L24.1849 41.9283L24.1849 41.9283C23.956 42.1209 23.7345 42.3072 23.5093 42.4874C23.4947 42.499 23.4806 42.5086 23.4672 42.5163C23.3631 42.5759 23.2954 42.5198 23.284 42.3815C23.2796 42.2965 23.2779 42.2084 23.2763 42.1208L23.2763 42.1208L23.2763 42.1207L23.2763 42.1207L23.2763 42.1206L23.2763 42.1206L23.2763 42.1205L23.2763 42.1204L23.2763 42.1204L23.2763 42.1203L23.2763 42.1203C23.2755 42.0762 23.2746 42.0323 23.2735 41.9889ZM22.432 42.8297L22.432 42.8296L22.432 42.8296C22.4436 42.5027 22.4552 42.1759 22.4699 41.8473L22.4542 41.8242C21.9398 42.2715 21.5663 42.8232 21.3089 43.5149L21.3104 43.5145C21.5097 43.4572 21.6966 43.4035 21.8835 43.3463C21.9615 43.323 22.0427 43.2979 22.1239 43.2693C22.1627 43.2573 22.1975 43.2425 22.2286 43.2247C22.3596 43.1498 22.4225 43.0222 22.432 42.8297ZM21.7347 45.2656C21.6931 45.3707 21.651 45.477 21.6086 45.5852C21.3048 45.3818 21.1507 45.0429 21.1305 44.5314C21.2214 44.5184 21.3105 44.5039 21.398 44.4897C21.5661 44.4624 21.7283 44.436 21.8865 44.4227C21.9897 44.4136 22.0305 44.504 21.9685 44.6676C21.893 44.8653 21.8148 45.063 21.7347 45.2653L21.7347 45.2654L21.7347 45.2655L21.7347 45.2656ZM23.8094 43.618C23.8357 43.6649 23.8672 43.7043 23.8988 43.744C23.9163 43.7659 23.9339 43.7879 23.9506 43.8113L23.9523 43.8134L23.9524 43.8135L23.9524 43.8135C24.0177 43.896 24.083 43.9787 24.1576 44.07C24.4436 43.5328 24.5735 43.0386 24.5814 42.5324C24.5084 42.6093 24.4374 42.6837 24.3679 42.7564L24.3677 42.7567L24.3676 42.7568C24.2121 42.9198 24.0641 43.0748 23.9177 43.2323C23.79 43.3694 23.7498 43.517 23.8094 43.618ZM23.5257 44.9546C23.2962 45.1825 23.076 45.3576 22.8574 45.4826C22.6574 45.597 22.4588 45.6696 22.2559 45.7024C22.2954 45.6266 22.334 45.5516 22.3723 45.4774L22.3723 45.4773L22.3723 45.4773C22.4903 45.2482 22.6046 45.0261 22.7315 44.8111C22.7624 44.7581 22.8359 44.6932 22.8937 44.6601C22.9231 44.6432 22.9485 44.6346 22.9623 44.64C23.1041 44.6993 23.236 44.7796 23.3725 44.8627C23.4227 44.8932 23.4735 44.9242 23.5257 44.9546ZM22.8607 43.0008L22.8554 43.0038C22.6142 43.1417 22.4059 43.5014 22.4129 43.7765C22.4167 44.0496 22.6171 44.1579 22.8579 44.0201L22.8636 44.0168C23.107 43.8776 23.306 43.5324 23.3052 43.2553C23.3044 42.9818 23.101 42.8633 22.8607 43.0008ZM22.7318 42.7223C22.7315 42.6441 22.7875 42.5445 22.8562 42.5052C22.9248 42.4695 22.9812 42.5013 22.9814 42.5759C22.9816 42.6541 22.9256 42.7502 22.857 42.7894C22.7883 42.8287 22.7351 42.7986 22.7318 42.7223ZM23.195 44.0727C23.1984 44.1491 23.2547 44.1773 23.3202 44.1399C23.3889 44.1006 23.4449 44.0045 23.4447 43.9264C23.4444 43.8518 23.3881 43.82 23.3195 43.8592L23.3145 43.8619C23.251 43.8983 23.1948 43.9965 23.195 44.0727ZM22.2251 43.6988C22.2253 43.777 22.1694 43.8731 22.1038 43.9106C22.0352 43.9498 21.9789 43.9216 21.9786 43.8434C21.9754 43.769 22.0314 43.6707 22.0979 43.6327L22.103 43.6299C22.1686 43.5924 22.2249 43.6242 22.2251 43.6988ZM23.6421 43.0306C23.7107 42.9913 23.7636 42.897 23.7634 42.8189C23.7632 42.7443 23.7068 42.7125 23.6413 42.7499L23.6361 42.7528C23.5699 42.7907 23.5167 42.8872 23.5169 42.9634C23.5202 43.0398 23.5735 43.0699 23.6421 43.0306ZM22.4778 44.6218C22.4092 44.6611 22.3559 44.631 22.3526 44.5547C22.3524 44.4785 22.4056 44.3819 22.4718 44.344L22.477 44.3412C22.5425 44.3037 22.5989 44.3355 22.5991 44.4101C22.5993 44.4882 22.5464 44.5825 22.4778 44.6218Z" fill="#ECF0F1"/>
<path d="M4.86028 39.555C5.01633 39.6442 5.14347 39.859 5.14296 40.0384L5.14065 40.843C5.14014 41.0207 5.01219 41.093 4.85614 41.0037L1.82214 39.2681L1.82422 38.5437L1.8263 37.8193L4.86028 39.555Z" fill="#E0E2E2"/>
<path d="M1.82418 38.5436L1.8221 39.268L1.17239 38.8963C1.11388 38.8629 1.06603 38.7807 1.06622 38.7141L1.06794 38.111L1.82418 38.5436Z" fill="#F1C40F"/>
<path d="M1.8263 37.8193L1.82422 38.5436L1.068 38.111L1.06972 37.508C1.06991 37.4414 1.11807 37.4141 1.17659 37.4476L1.8263 37.8193Z" fill="#E74C3C"/>
<path d="M12.9906 44.4772L12.9865 45.9259L9.95249 44.1903C9.79493 44.1002 9.66929 43.8829 9.6698 43.7052L9.6721 42.9005C9.67261 42.7212 9.79907 42.6515 9.95665 42.7416L12.9906 44.4772Z" fill="#E0E2E2"/>
<path d="M13.6388 44.848C13.6973 44.8815 13.7451 44.9636 13.7449 45.0302L13.7432 45.6333L12.9885 45.2015L12.9906 44.4772L13.6388 44.848Z" fill="#E74C3C"/>
<path d="M13.7431 45.6333L13.7414 46.2363C13.7412 46.3029 13.6931 46.3302 13.6346 46.2967L12.9864 45.9259L12.9884 45.2015L13.7431 45.6333Z" fill="#F1C40F"/>
<path d="M56.8984 13.8408L56.2233 13.0648C56.2047 13.0434 56.1878 13.0414 56.1757 13.0555L56.0764 13.1704C56.0886 13.1563 56.1054 13.1582 56.1241 13.1796L56.7992 13.9556C56.8365 13.9985 56.8663 14.1018 56.8662 14.1861L56.8626 16.6808C56.8626 16.7229 56.8551 16.7525 56.8431 16.7664L56.9424 16.6516C56.9544 16.6377 56.9618 16.6081 56.9619 16.566L56.9654 14.0713C56.9656 13.9869 56.9358 13.8837 56.8984 13.8408Z" fill="#5B5E71"/>
<path d="M56.1241 13.1797C56.087 13.137 56.057 13.1716 56.0569 13.2559L56.0533 15.7506C56.0532 15.8355 56.083 15.9383 56.1201 15.9809L56.7952 16.7569C56.8326 16.7998 56.8626 16.7657 56.8627 16.6809L56.8662 14.1861C56.8663 14.1018 56.8365 13.9985 56.7992 13.9556L56.1241 13.1797Z" fill="#525566"/>
<path d="M56.166 15.8225C56.1575 15.8127 56.1452 15.7707 56.1451 15.7512L56.1485 13.4188L56.7532 14.114C56.7618 14.1238 56.7742 14.166 56.7743 14.1858L56.771 16.5179L56.166 15.8225Z" fill="#3498DB"/>
<path d="M56.9475 14H56.9474C56.9188 13.9999 56.8957 13.9743 56.8958 13.943L56.8965 13.6594L56.0259 13.1061C56.0011 13.0904 55.9926 13.0556 56.007 13.0284C56.0212 13.0013 56.053 12.9919 56.0776 13.0076L56.9742 13.5774C56.9902 13.5875 57.0001 13.6064 57 13.6267L56.9992 13.9432C56.9991 13.9747 56.976 14 56.9475 14Z" fill="#3F434F"/>
</svg>
