<svg width="54" height="22" viewBox="0 0 54 22" fill="none" xmlns="http://www.w3.org/2000/svg">
<path d="M23.9616 2.8483H25.5789L23.8856 11.58H22.2685L22.5847 9.73036C22.2398 10.3494 21.7929 10.8311 21.2417 11.1777C20.6904 11.5243 20.0629 11.6991 19.3618 11.6991C18.2114 11.6991 17.3446 11.2835 16.7595 10.4553C16.1743 9.62721 16.0077 8.54783 16.2621 7.21424C16.4311 6.33564 16.7549 5.55257 17.2313 4.86713C17.7076 4.18189 18.2824 3.65533 18.9558 3.28495C19.629 2.91456 20.3418 2.72942 21.0959 2.72942C21.7967 2.72942 22.3612 2.90394 22.7864 3.25317C23.2114 3.60261 23.4777 4.08406 23.5875 4.69793L23.9617 2.8484V2.8482L23.9616 2.8483ZM18.2212 9.2462C18.5644 9.73848 19.096 9.98437 19.8163 9.98437C20.5367 9.98437 21.1707 9.72755 21.7157 9.21423C22.2608 8.7009 22.6107 8.02899 22.7679 7.1981C22.9194 6.37804 22.8242 5.71386 22.4795 5.20594C22.1347 4.69773 21.6083 4.44372 20.9025 4.44372C20.1869 4.44372 19.5605 4.69261 19.0212 5.1898C18.4818 5.68739 18.1269 6.36211 17.9591 7.21414C17.7909 8.07661 17.8781 8.75403 18.2213 9.2461L18.2212 9.2462ZM29.9793 0.0859985L27.751 11.58H26.0902L28.3189 0.0859985H29.9795H29.9793ZM39.3864 2.8483L35.3926 7.21424L37.6933 11.5801H35.7931L34.1816 8.53179L31.3914 11.5801H29.4913L33.4924 7.21424L31.1845 2.8483H33.0846L34.6962 5.89639L37.4862 2.8483H39.3864ZM47.2183 2.8483H48.8355L47.1423 11.58H45.5252L45.8412 9.73036C45.4963 10.3494 45.0496 10.8311 44.4983 11.1777C43.9468 11.5243 43.3196 11.6991 42.6185 11.6991C41.468 11.6991 40.6011 11.2835 40.0161 10.4553C39.4308 9.62721 39.2642 8.54783 39.5188 7.21424C39.6877 6.33564 40.0116 5.55257 40.488 4.86713C40.9643 4.18189 41.5388 3.65533 42.2123 3.28495C42.8858 2.91456 43.5983 2.72942 44.3526 2.72942C45.0534 2.72942 45.6178 2.90394 46.043 3.25317C46.468 3.60261 46.7344 4.08406 46.8442 4.69793L47.2183 2.8484V2.8482V2.8483ZM41.478 9.2462C41.821 9.73848 42.3528 9.98437 43.0731 9.98437C43.7935 9.98437 44.4273 9.72755 44.9725 9.21423C45.5177 8.7009 45.8674 8.02899 46.0247 7.1981C46.176 6.37804 46.0809 5.71386 45.7363 5.20594C45.3914 4.69773 44.8649 4.44372 44.1591 4.44372C43.4435 4.44372 42.8173 4.69261 42.278 5.1898C41.7384 5.68739 41.3836 6.36211 41.2159 7.21414C41.0475 8.07661 41.1348 8.75403 41.4781 9.2461L41.478 9.2462Z" fill="#4D4D4D"/>
<path fill-rule="evenodd" clip-rule="evenodd" d="M14.8399 11.5088L8.61687 -6.10352e-05H6.22314L12.4464 11.5088H14.8399Z" fill="#60B3FF" fill-opacity="0.501961"/>
<path fill-rule="evenodd" clip-rule="evenodd" d="M0.47876 11.5088L6.46257 -6.10352e-05H8.61692L8.85609 0.478784H8.61692L2.87238 11.489L0.47876 11.5088Z" fill="#60B3FF"/>
<path fill-rule="evenodd" clip-rule="evenodd" d="M0 11.03L5.74454 -6.10352e-05H8.17745L2.39352 11.03H0Z" fill="#1890FF"/>
<path fill-rule="evenodd" clip-rule="evenodd" d="M6.22314 11.5087L11.9677 0.47876H14.4007L8.61687 11.5087H6.22314Z" fill="#60B3FF"/>
<path fill-rule="evenodd" clip-rule="evenodd" d="M5.74463 11.03L11.4892 -6.10352e-05H13.9221L8.13815 11.03H5.74463Z" fill="#1890FF"/>
<path d="M40.08 19C39.9573 19 39.8507 18.9547 39.76 18.864C39.6747 18.7733 39.632 18.6667 39.632 18.544V13.616C39.632 13.4933 39.6747 13.3867 39.76 13.296C39.8507 13.2053 39.9573 13.16 40.08 13.16H40.336C40.4587 13.16 40.5653 13.2053 40.656 13.296C40.7467 13.3867 40.792 13.4933 40.792 13.616V18C40.792 18.048 40.8133 18.072 40.856 18.072H42.912C43.0347 18.072 43.1387 18.1173 43.224 18.208C43.3147 18.2933 43.36 18.3973 43.36 18.52V18.544C43.36 18.6667 43.3147 18.7733 43.224 18.864C43.1387 18.9547 43.0347 19 42.912 19H40.08ZM46.6328 15.872C46.4781 15.648 46.2435 15.536 45.9288 15.536C45.6141 15.536 45.3768 15.648 45.2168 15.872C45.0621 16.0907 44.9848 16.44 44.9848 16.92C44.9848 17.4 45.0621 17.752 45.2168 17.976C45.3768 18.1947 45.6141 18.304 45.9288 18.304C46.2435 18.304 46.4781 18.1947 46.6328 17.976C46.7928 17.752 46.8728 17.4 46.8728 16.92C46.8728 16.44 46.7928 16.0907 46.6328 15.872ZM47.4168 18.52C47.0648 18.8933 46.5688 19.08 45.9288 19.08C45.2888 19.08 44.7901 18.8933 44.4328 18.52C44.0808 18.1413 43.9048 17.608 43.9048 16.92C43.9048 16.232 44.0808 15.7013 44.4328 15.328C44.7901 14.9493 45.2888 14.76 45.9288 14.76C46.5688 14.76 47.0648 14.9493 47.4168 15.328C47.7741 15.7013 47.9528 16.232 47.9528 16.92C47.9528 17.608 47.7741 18.1413 47.4168 18.52ZM50.5527 15.56C49.966 15.56 49.6727 15.9867 49.6727 16.84C49.6727 17.2827 49.75 17.6133 49.9047 17.832C50.0647 18.0507 50.2807 18.16 50.5527 18.16C50.7927 18.16 50.998 18.0747 51.1687 17.904C51.3447 17.7333 51.4327 17.5333 51.4327 17.304V16.44C51.4327 16.1947 51.3447 15.9867 51.1687 15.816C50.998 15.6453 50.7927 15.56 50.5527 15.56ZM50.2167 18.96C49.7474 18.96 49.3634 18.7733 49.0647 18.4C48.766 18.0213 48.6167 17.5013 48.6167 16.84C48.6167 16.1787 48.758 15.6667 49.0407 15.304C49.3287 14.9413 49.7207 14.76 50.2167 14.76C50.4674 14.76 50.6887 14.8053 50.8807 14.896C51.0727 14.9867 51.262 15.1387 51.4487 15.352C51.454 15.3573 51.4594 15.36 51.4647 15.36C51.47 15.36 51.4727 15.3573 51.4727 15.352V15.296C51.478 15.168 51.526 15.0613 51.6167 14.976C51.7074 14.8853 51.8167 14.84 51.9447 14.84H52.0327C52.1554 14.84 52.2594 14.8853 52.3447 14.976C52.4354 15.0667 52.4807 15.1733 52.4807 15.296V18.68C52.4807 20.12 51.7607 20.84 50.3207 20.84C50.0647 20.84 49.7954 20.8187 49.5127 20.776C49.3847 20.7547 49.278 20.6907 49.1927 20.584C49.1127 20.4827 49.0727 20.3653 49.0727 20.232C49.0727 20.1253 49.1154 20.04 49.2007 19.976C49.2914 19.9173 49.39 19.9013 49.4967 19.928C49.7527 19.992 50.0194 20.024 50.2967 20.024C50.6914 20.024 50.9794 19.92 51.1607 19.712C51.342 19.5093 51.4327 19.1733 51.4327 18.704V18.456C51.4327 18.4507 51.43 18.448 51.4247 18.448C51.4194 18.448 51.414 18.4507 51.4087 18.456C51.0887 18.792 50.6914 18.96 50.2167 18.96Z" fill="#303672"/>
</svg>
