<svg width="93" height="92" viewBox="0 0 93 92" fill="none" xmlns="http://www.w3.org/2000/svg">
<path d="M92.9409 46C92.9409 71.4051 72.2853 92 46.8052 92C21.3252 92 0.669556 71.4051 0.669556 46C0.669556 20.5949 21.3252 0 46.8052 0C72.2853 0 92.9409 20.5949 92.9409 46ZM11.1793 46C11.1793 65.6178 27.1296 81.5212 46.8052 81.5212C66.4809 81.5212 82.4312 65.6178 82.4312 46C82.4312 26.3822 66.4809 10.4788 46.8052 10.4788C27.1296 10.4788 11.1793 26.3822 11.1793 46Z" fill="#F7F5FF"/>
<path d="M46.8052 3.99998C46.8052 1.79084 48.5994 -0.0179793 50.8003 0.17276C56.1279 0.634474 61.3449 2.0172 66.2147 4.26887C72.2966 7.08101 77.6908 11.1809 82.0217 16.2832C86.3526 21.3856 89.5163 27.3677 91.2924 33.8132C93.0685 40.2587 93.4144 47.0127 92.306 53.605C91.1977 60.1974 88.6617 66.4697 84.8746 71.9853C81.0874 77.501 76.1402 82.1275 70.3772 85.5427C64.6143 88.9579 58.174 91.0798 51.5049 91.7607C46.1676 92.3056 40.7863 91.9171 35.6014 90.623C33.4552 90.0873 32.3472 87.7887 33.0704 85.6983L33.882 83.3527C34.6034 81.2676 36.8744 80.1841 39.0278 80.6644C42.7605 81.497 46.612 81.7266 50.4343 81.3364C55.5842 80.8106 60.5574 79.1721 65.0075 76.5348C69.4577 73.8976 73.278 70.3251 76.2024 66.0659C79.1268 61.8067 81.0851 56.9632 81.941 51.8726C82.7968 46.782 82.5297 41.5665 81.1582 36.5893C79.7867 31.6121 77.3437 26.9927 73.9994 23.0527C70.6551 19.1127 66.4897 15.9467 61.7932 13.7752C58.3095 12.1644 54.5956 11.1295 50.7969 10.7024C48.6016 10.4556 46.8052 8.68792 46.8052 6.47878V3.99998Z" fill="url(#paint0_linear)"/>
<path fill-rule="evenodd" clip-rule="evenodd" d="M47 32.6667L60.3334 41.3334V50.6667L47 59.3334L33.6667 50.6667V41.3334L47 32.6667V32.6667Z" stroke="#1890FF" stroke-width="1.5" stroke-linecap="round" stroke-linejoin="round"/>
<path d="M47 59.3334V50.6667" stroke="#1890FF" stroke-width="1.5" stroke-linecap="round" stroke-linejoin="round"/>
<path d="M60.3334 41.3335L47 50.6668L33.6667 41.3335" stroke="#1890FF" stroke-width="1.5" stroke-linecap="round" stroke-linejoin="round"/>
<path d="M33.6667 50.6668L47 41.3335L60.3334 50.6668" stroke="#1890FF" stroke-width="1.5" stroke-linecap="round" stroke-linejoin="round"/>
<path d="M47 32.6667V41.3334" stroke="#1890FF" stroke-width="1.5" stroke-linecap="round" stroke-linejoin="round"/>
<defs>
<linearGradient id="paint0_linear" x1="62.8953" y1="0.158936" x2="62.8953" y2="92" gradientUnits="userSpaceOnUse">
<stop stop-color="#1890FF"/>
<stop offset="1" stop-color="#1890FF"/>
</linearGradient>
</defs>
</svg>
