<svg width="93" height="92" viewBox="0 0 93 92" fill="none" xmlns="http://www.w3.org/2000/svg">
<path d="M36.7758 58.5H55.5811C56.5782 58.4989 57.5342 58.1035 58.2393 57.4004C58.9444 56.6974 59.341 55.7442 59.3421 54.75V44.75C59.3421 44.4185 59.2101 44.1005 58.9749 43.8661C58.7398 43.6317 58.4209 43.5 58.0885 43.5C57.756 43.5 57.4371 43.6317 57.202 43.8661C56.9668 44.1005 56.8348 44.4185 56.8348 44.75V54.75C56.8345 55.0814 56.7023 55.3992 56.4672 55.6336C56.2322 55.8679 55.9135 55.9997 55.5811 56H36.7758C36.4434 55.9997 36.1247 55.8679 35.8896 55.6336C35.6546 55.3992 35.5224 55.0814 35.5221 54.75V37.25C35.5224 36.9186 35.6546 36.6008 35.8896 36.3664C36.1247 36.1321 36.4434 36.0003 36.7758 36H48.059C48.3915 36 48.7103 35.8683 48.9454 35.6339C49.1806 35.3995 49.3126 35.0815 49.3126 34.75C49.3126 34.4185 49.1806 34.1005 48.9454 33.8661C48.7103 33.6317 48.3915 33.5 48.059 33.5H36.7758C35.7786 33.5011 34.8226 33.8965 34.1175 34.5996C33.4124 35.3026 33.0158 36.2558 33.0147 37.25V54.75C33.0158 55.7442 33.4124 56.6974 34.1175 57.4004C34.8226 58.1035 35.7786 58.4989 36.7758 58.5Z" fill="#1890FF"/>
<path d="M58.0884 28.5C56.8486 28.5 55.6367 28.8666 54.6059 29.5533C53.575 30.2401 52.7716 31.2162 52.2971 32.3582C51.8227 33.5003 51.6986 34.7569 51.9404 35.9693C52.1823 37.1817 52.7793 38.2953 53.656 39.1694C54.5326 40.0435 55.6495 40.6388 56.8655 40.8799C58.0815 41.1211 59.3418 40.9973 60.4872 40.5242C61.6326 40.0512 62.6116 39.2501 63.3004 38.2223C63.9892 37.1945 64.3568 35.9861 64.3568 34.75C64.3549 33.093 63.6938 31.5044 62.5187 30.3327C61.3436 29.1611 59.7503 28.502 58.0884 28.5ZM58.0884 38.5C57.3445 38.5 56.6174 38.2801 55.9989 37.868C55.3804 37.456 54.8983 36.8703 54.6136 36.1851C54.329 35.4998 54.2545 34.7458 54.3996 34.0184C54.5447 33.291 54.9029 32.6228 55.4289 32.0983C55.9549 31.5739 56.6251 31.2168 57.3547 31.0721C58.0842 30.9274 58.8405 31.0016 59.5277 31.2855C60.2149 31.5693 60.8023 32.0499 61.2156 32.6666C61.6289 33.2833 61.8495 34.0083 61.8495 34.75C61.8484 35.7442 61.4518 36.6974 60.7467 37.4004C60.0416 38.1035 59.0856 38.4989 58.0884 38.5Z" fill="#1890FF"/>
<path d="M39.2832 41H45.5516C45.8841 41 46.203 40.8683 46.4381 40.6339C46.6732 40.3995 46.8053 40.0815 46.8053 39.75C46.8053 39.4185 46.6732 39.1005 46.4381 38.8661C46.203 38.6317 45.8841 38.5 45.5516 38.5H39.2832C38.9507 38.5 38.6318 38.6317 38.3967 38.8661C38.1615 39.1005 38.0295 39.4185 38.0295 39.75C38.0295 40.0815 38.1615 40.3995 38.3967 40.6339C38.6318 40.8683 38.9507 41 39.2832 41Z" fill="#1890FF"/>
<path d="M38.0295 44.75C38.0295 45.0815 38.1615 45.3995 38.3967 45.6339C38.6318 45.8683 38.9507 46 39.2832 46H50.5663C50.8988 46 51.2177 45.8683 51.4528 45.6339C51.6879 45.3995 51.82 45.0815 51.82 44.75C51.82 44.4185 51.6879 44.1005 51.4528 43.8661C51.2177 43.6317 50.8988 43.5 50.5663 43.5H39.2832C38.9507 43.5 38.6318 43.6317 38.3967 43.8661C38.1615 44.1005 38.0295 44.4185 38.0295 44.75Z" fill="#1890FF"/>
</svg>
