<svg width="92" height="92" viewBox="0 0 92 92" fill="none" xmlns="http://www.w3.org/2000/svg">
<path d="M62.5 31.2344H54.9531V28.3594C54.9531 28.1617 54.7914 28 54.5938 28H52.0781C51.8805 28 51.7188 28.1617 51.7188 28.3594V31.2344H40.2188V28.3594C40.2188 28.1617 40.057 28 39.8594 28H37.3438C37.1461 28 36.9844 28.1617 36.9844 28.3594V31.2344H29.4375C28.6424 31.2344 28 31.8768 28 32.6719V62.5C28 63.2951 28.6424 63.9375 29.4375 63.9375H62.5C63.2951 63.9375 63.9375 63.2951 63.9375 62.5V32.6719C63.9375 31.8768 63.2951 31.2344 62.5 31.2344ZM60.7031 60.7031H31.2344V43.6328H60.7031V60.7031ZM31.2344 40.5781V34.4688H36.9844V36.625C36.9844 36.8227 37.1461 36.9844 37.3438 36.9844H39.8594C40.057 36.9844 40.2188 36.8227 40.2188 36.625V34.4688H51.7188V36.625C51.7188 36.8227 51.8805 36.9844 52.0781 36.9844H54.5938C54.7914 36.9844 54.9531 36.8227 54.9531 36.625V34.4688H60.7031V40.5781H31.2344Z" fill="#1890FF"/>
</svg>
