<svg width="92" height="92" viewBox="0 0 92 92" fill="none" xmlns="http://www.w3.org/2000/svg">
<path d="M77.0624 26.9695V33.8085H76.8809V33.7356H16.1815V33.8085H16V26.9695C16.0008 26.1822 16.3165 25.4273 16.8778 24.8706C17.4392 24.3139 18.2003 24.0008 18.9941 24H74.0682C74.8621 24.0008 75.6232 24.3139 76.1845 24.8706C76.7459 25.4273 77.0616 26.1822 77.0624 26.9695Z" fill="#1890FF"/>
<path d="M74.0682 24H18.9941C18.2003 24.0008 17.4392 24.3139 16.8778 24.8706C16.3165 25.4273 16.0008 26.1822 16 26.9695V66.0235C16.0008 66.8108 16.3165 67.5657 16.8778 68.1224C17.4392 68.6791 18.2003 68.9922 18.9941 68.993H74.0682C74.8621 68.9922 75.6232 68.6791 76.1845 68.1224C76.7459 67.5657 77.0616 66.8108 77.0624 66.0235V26.9695C77.0616 26.1822 76.7459 25.4273 76.1845 24.8706C75.6232 24.3139 74.8621 24.0008 74.0682 24V24ZM76.8809 66.0235C76.8799 66.763 76.5833 67.472 76.056 67.995C75.5288 68.5179 74.8139 68.8121 74.0682 68.813H18.9941C18.2485 68.8121 17.5336 68.5179 17.0063 67.995C16.4791 67.472 16.1824 66.763 16.1815 66.0235V26.9695C16.1824 26.23 16.4791 25.521 17.0063 24.9981C17.5336 24.4751 18.2485 24.1809 18.9941 24.18H74.0682C74.8139 24.1809 75.5288 24.4751 76.056 24.9981C76.5833 25.521 76.8799 26.23 76.8809 26.9695V66.0235Z" fill="#3F3D56"/>
<path d="M28.3395 30.7039C29.3417 30.7039 30.1542 29.8982 30.1542 28.9042C30.1542 27.9103 29.3417 27.1045 28.3395 27.1045C27.3373 27.1045 26.5249 27.9103 26.5249 28.9042C26.5249 29.8982 27.3373 30.7039 28.3395 30.7039Z" fill="white"/>
<path d="M64.7228 30.7039C65.725 30.7039 66.5375 29.8982 66.5375 28.9042C66.5375 27.9103 65.725 27.1045 64.7228 27.1045C63.7206 27.1045 62.9082 27.9103 62.9082 28.9042C62.9082 29.8982 63.7206 30.7039 64.7228 30.7039Z" fill="white"/>
<path d="M33.5823 48.9714H22.7874C22.3301 48.9709 21.8917 48.7905 21.5683 48.4698C21.2449 48.1491 21.063 47.7142 21.0625 47.2607V42.2005C21.063 41.7469 21.2449 41.3121 21.5683 40.9914C21.8917 40.6707 22.3301 40.4903 22.7874 40.4897H33.5823C34.0397 40.4903 34.4781 40.6707 34.8015 40.9914C35.1249 41.3121 35.3068 41.7469 35.3073 42.2005V47.2607C35.3068 47.7142 35.1249 48.1491 34.8015 48.4698C34.4781 48.7905 34.0397 48.9709 33.5823 48.9714V48.9714Z" fill="#1890FF"/>
<path d="M51.9464 48.9714H41.1515C40.6941 48.9709 40.2557 48.7905 39.9323 48.4698C39.6089 48.1491 39.427 47.7142 39.4265 47.2607V42.2005C39.427 41.7469 39.6089 41.3121 39.9323 40.9914C40.2557 40.6707 40.6941 40.4903 41.1515 40.4897H51.9464C52.4037 40.4903 52.8421 40.6707 53.1655 40.9914C53.4889 41.3121 53.6708 41.7469 53.6713 42.2005V47.2607C53.6708 47.7142 53.4889 48.1491 53.1655 48.4698C52.8421 48.7905 52.4037 48.9709 51.9464 48.9714Z" fill="#1890FF"/>
<path d="M51.9464 62.0454H41.1515C40.6803 62.0448 40.2286 61.859 39.8954 61.5285C39.5622 61.1981 39.3748 60.7501 39.3743 60.2828V55.2226C39.3748 54.7553 39.5622 54.3072 39.8954 53.9768C40.2286 53.6464 40.6803 53.4605 41.1515 53.46H51.9464C52.4176 53.4605 52.8693 53.6464 53.2025 53.9768C53.5357 54.3072 53.7231 54.7553 53.7236 55.2226V60.2828C53.7231 60.7501 53.5357 61.1981 53.2025 61.5285C52.8693 61.859 52.4176 62.0448 51.9464 62.0454V62.0454Z" fill="#F2F2F2"/>
<path d="M33.547 62.0454H22.7521C22.2809 62.0448 21.8291 61.859 21.496 61.5285C21.1628 61.1981 20.9754 60.7501 20.9749 60.2828V55.2226C20.9754 54.7553 21.1628 54.3072 21.496 53.9768C21.8291 53.6464 22.2809 53.4605 22.7521 53.46H33.547C34.0181 53.4605 34.4699 53.6464 34.803 53.9768C35.1362 54.3072 35.3236 54.7553 35.3242 55.2226V60.2828C35.3236 60.7501 35.1362 61.1981 34.803 61.5285C34.4699 61.859 34.0181 62.0448 33.547 62.0454V62.0454Z" fill="#F2F2F2"/>
<path d="M70.3103 62.0454H59.5154C59.0442 62.0448 58.5924 61.859 58.2593 61.5285C57.9261 61.1981 57.7387 60.7501 57.7382 60.2828V55.2226C57.7387 54.7553 57.9261 54.3072 58.2593 53.9768C58.5924 53.6464 59.0442 53.4605 59.5154 53.46H70.3103C70.7814 53.4605 71.2332 53.6464 71.5664 53.9768C71.8995 54.3072 72.0869 54.7553 72.0875 55.2226V60.2828C72.0869 60.7501 71.8995 61.1981 71.5664 61.5285C71.2332 61.859 70.7814 62.0448 70.3103 62.0454V62.0454Z" fill="#F2F2F2"/>
<path d="M70.3103 48.9814H59.5154C59.0442 48.9809 58.5924 48.795 58.2593 48.4646C57.9261 48.1341 57.7387 47.6861 57.7382 47.2188V42.1586C57.7387 41.6913 57.9261 41.2433 58.2593 40.9128C58.5924 40.5824 59.0442 40.3965 59.5154 40.396H70.3103C70.7814 40.3965 71.2332 40.5824 71.5664 40.9128C71.8995 41.2433 72.0869 41.6913 72.0875 42.1586V47.2188C72.0869 47.6861 71.8995 48.1341 71.5664 48.4646C71.2332 48.795 70.7814 48.9809 70.3103 48.9814Z" fill="#F2F2F2"/>
</svg>
