<svg width="44" height="48" viewBox="0 0 44 48" fill="none" xmlns="http://www.w3.org/2000/svg">
<path d="M14 0L0 7.88565V21.1164L14 29L28 21.1164V7.88565L14 0Z" fill="#FFE6C6"/>
<path d="M28 21.5325L13 29V16.4675L28 9V21.5325Z" fill="#FFD2A6"/>
<path d="M0 21.5325L15 29V16.4675L0 9V21.5325Z" fill="#FCBC90"/>
<path d="M2.50002 10L2 11.6401L2.19218 11.9369V13.0514L2.80624 14V12.8856L3 13.1849L2.50002 10Z" fill="#284363"/>
<path d="M13.3674 0L9 2.46617L11.6783 4L16 1.51379L13.3674 0Z" fill="white"/>
<path d="M12.7928 1.04211L13.2785 1.40467L10.5527 3.39014L10.0669 3.02758L12.7928 1.04211Z" fill="#C8CED6"/>
<path d="M13.4873 1.59583L13.9731 1.95838L11.2473 3.94385L10.7615 3.5813L13.4873 1.59583Z" fill="#C8CED6"/>
<g opacity="0.2">
<path d="M17.4449 1.09033L4.01392 9.9911L8.51006 12.9406L21.9406 4.04025L17.4449 1.09033Z" fill="white"/>
</g>
<g opacity="0.2">
<path d="M19.9693 3.80107L8.05502 11.9336L7.01343 11.2288L18.9278 3.09644L19.9693 3.80107Z" fill="#424242"/>
</g>
<path d="M43.1809 30.6858L43.0994 30.6253L43.0995 30.6254C43.0941 30.6213 43.0895 30.6165 43.0839 30.6123L38.3744 27.1279L35.6227 17.5792L33.6845 16.4592L33.5585 16.3864L27.6981 13L13.8454 20.9868V28.9569L0 20.9556V27.6811C0 28.478 0.424583 29.2145 1.11391 29.6133L13.8455 36.9701L29.3277 45.9166L30.1445 45.9624V46L30.3877 45.9759L30.8166 46L30.9553 45.9199L43.7171 38.5454C43.7172 38.5454 43.7173 38.5453 43.7174 38.5452L43.7662 38.517C43.7979 38.4986 43.8234 38.4741 43.8427 38.4459C43.9419 38.342 44 38.2028 44 38.055V32.4217V32.3342V32.3138C44 31.6718 43.6961 31.0679 43.1809 30.6858Z" fill="#FF5331"/>
<path d="M8.22634 28.2235L8.23096 28.2306C9.05061 27.7968 10.0415 28.2473 10.7644 29.535C11.7612 31.3103 11.8694 33.9961 11.0062 35.5336C10.7794 35.9376 10.5075 36.2189 10.2127 36.3867L10.2122 36.3935L8.03027 37.6863L6.05591 29.5122L8.22634 28.2235Z" fill="#212938"/>
<path d="M25.5633 38.4603L25.5679 38.4674C26.3875 38.0336 27.3784 38.4841 28.1013 39.7718C29.0981 41.5472 29.2063 44.2329 28.3432 45.7704C28.1163 46.1745 27.8444 46.4557 27.5496 46.6235L27.5491 46.6304L25.3672 47.9231L23.3928 39.7491L25.5633 38.4603Z" fill="#212938"/>
<path d="M43.9506 39.061L40.3188 34.3095L31.2266 39.6246C30.6202 39.9791 29.8637 39.9352 29.3012 39.5132L24.5963 35.982L37.0849 28.6825L34.3274 19L21.7837 26.3118L13.8821 21.6442V29.7235L0 21.6127V28.4303C0 29.2381 0.425704 29.9846 1.11685 30.3889L13.882 37.8465L29.4051 46.9155L30.898 47L43.8817 39.4146C44.0058 39.3421 44.0382 39.1756 43.9506 39.061Z" fill="#C40041"/>
<path d="M38 27.2486L35.0248 18L20 25.7603L23.0329 35L38 27.2486Z" fill="#E84C3D"/>
<path d="M16.0071 23.1544L21.3383 26.2593L23.5698 34.5103L16.0071 30.1068V23.1544Z" fill="#33AEFF"/>
<path d="M23.0287 26.3292L25.4832 34.9418L37.9501 27.634L35.4822 19.0256L23.0287 26.3292Z" fill="#33AEFF"/>
<path d="M25.3093 40.5541C26.1442 42.4328 26.2349 45.2747 25.5118 46.9016C24.7888 48.5286 23.5257 48.3246 22.6907 46.4459C21.8558 44.5672 21.7651 41.7253 22.4882 40.0983C23.2112 38.4714 24.4743 38.6755 25.3093 40.5541Z" fill="#284363"/>
<path d="M25.482 41.6907C26.1082 42.5257 26.1762 43.7888 25.6339 44.5118C25.0916 45.2349 24.1443 45.1443 23.518 44.3093C22.8918 43.4743 22.8238 42.2112 23.3662 41.4882C23.9083 40.7651 24.8557 40.8557 25.482 41.6907Z" fill="#C8CED6"/>
<path d="M25.8273 42.6907C26.0361 43.5257 26.0587 44.7888 25.878 45.5118C25.6972 46.2349 25.3814 46.1443 25.1727 45.3093C24.9639 44.4743 24.9413 43.2112 25.122 42.4882C25.3028 41.7651 25.6186 41.8557 25.8273 42.6907Z" fill="#9FACBC"/>
<path d="M25.8273 42.5181C26.0361 43.1442 26.0587 44.0915 25.878 44.6339C25.6972 45.1762 25.3814 45.1082 25.1727 44.482C24.9639 43.8558 24.9413 42.9086 25.122 42.3662C25.3028 41.8238 25.6186 41.8918 25.8273 42.5181Z" fill="#C8CED6"/>
<path d="M8.30928 30.5541C9.14425 32.4327 9.23493 35.2746 8.51185 36.9016C7.78877 38.5286 6.52568 38.3246 5.69072 36.4459C4.85575 34.5672 4.76507 31.7253 5.48815 30.0983C6.21131 28.4714 7.47432 28.6755 8.30928 30.5541Z" fill="#284363"/>
<path d="M6.48199 32.6907C7.10819 33.5257 7.17621 34.7888 6.63385 35.5118C6.09149 36.235 5.14423 36.1442 4.51803 35.3092C3.89183 34.4743 3.82381 33.2113 4.36607 32.4881C4.90853 31.7651 5.85579 31.8558 6.48199 32.6907Z" fill="#C8CED6"/>
<path d="M6.82732 31.6907C7.03606 32.5256 7.05873 33.7887 6.87797 34.5118C6.6972 35.2349 6.38142 35.1443 6.17268 34.3093C5.96394 33.4743 5.94127 32.2112 6.12203 31.4882C6.3028 30.7651 6.61858 30.8557 6.82732 31.6907Z" fill="#9FACBC"/>
<path d="M6.82733 32.518C7.03608 33.1442 7.05872 34.0916 6.87796 34.6339C6.69719 35.1762 6.38142 35.1082 6.17267 34.482C5.96392 33.8558 5.94128 32.9084 6.12204 32.3661C6.30281 31.8238 6.61858 31.8918 6.82733 32.518Z" fill="#C8CED6"/>
<path d="M43.1134 30.059L43.0252 30L43.0253 30.0001C43.4727 30.3152 43.4304 30.9398 42.9393 31.2016C42.9391 31.2017 42.9389 31.2019 42.9386 31.2021H42.9385C42.9363 31.2033 42.9345 31.2047 42.9322 31.2059L30.2112 37.8344C29.464 38.2242 29.0037 38.9435 29.0032 39.7221L29 45L29.8777 44.9219L43.6937 37.7271C43.8832 37.6283 44 37.446 44 37.2486V31.7525V31.6672V31.6473C44.0002 31.021 43.6713 30.4318 43.1134 30.059Z" fill="#F43834"/>
<path d="M32.6627 42.2951L31.255 43.2137C31.1347 43.2917 31.0605 43.436 31.0605 43.5922V43.7179C31.0605 43.8728 31.2098 43.9697 31.3291 43.8922L32.737 42.9729C32.8573 42.8948 32.9313 42.7506 32.9313 42.5945V42.4695C32.9312 42.3144 32.7821 42.2177 32.6627 42.2951Z" fill="#F0C419"/>
<path d="M43.7216 35.1131L42.3138 36.0317C42.1935 36.1098 42.1194 36.2541 42.1194 36.4103V36.5359C42.1194 36.6908 42.2686 36.7877 42.388 36.7102L43.7958 35.791C43.9161 35.7128 43.9902 35.5686 43.9902 35.4124V35.2875C43.9902 35.1325 43.8409 35.0356 43.7216 35.1131Z" fill="#F0C419"/>
<g opacity="0.2">
<path d="M18.0676 23.0156L21.2244 31.4618L23.9393 32.9688L22.8082 28.9541L21.2488 24.7818L18.0676 23.0156Z" fill="white"/>
</g>
<g opacity="0.2">
<path d="M16.1902 23.1606L16.1498 23.1335L16.0061 23.0376V30.0035L18.9205 31.9501L16.1902 23.1606Z" fill="white"/>
</g>
<path d="M35.0772 38.4558L41.5509 35.1168C42.1954 34.7844 43 35.2012 43 35.8675C43 36.5558 42.59 37.1919 41.9245 37.5359L35.4499 40.8828C34.8054 41.216 34 40.7992 34 40.1324V40.1251C34 39.4361 34.4107 38.7996 35.0772 38.4558Z" fill="#212938"/>
<path d="M30.7055 40.2558C30.7055 40.864 30.3375 41.5705 29.8837 41.8338C29.4298 42.0972 29.0619 41.8177 29.0619 41.2095C29.0619 40.6013 29.4298 39.8948 29.8837 39.6315C30.3375 39.3681 30.7055 39.6476 30.7055 40.2558Z" fill="white"/>
<path d="M41.9366 33.7492C41.9366 34.3574 41.5686 35.0639 41.1148 35.3272C40.6609 35.5906 40.293 35.3111 40.293 34.7029C40.293 34.0946 40.6609 33.3882 41.1148 33.1249C41.5686 32.8615 41.9366 33.141 41.9366 33.7492Z" fill="white"/>
<path d="M44 36.1246V37.6197C44 37.9356 43.8339 38.2274 43.5642 38.3853L31.0199 45.7652C30.4842 46.079 29.8239 46.0782 29.2888 45.7633L28 45.0047V42.9885L28.123 42.9107L29.9781 44.0013C30.0953 44.0702 30.2398 44.0703 30.357 44.0016L43.7848 36.102V36L44 36.1246Z" fill="#C8CED6"/>
<g opacity="0.2">
<path d="M34.8746 29.9452L36.946 24.3447L35.4226 19.0271L32.7571 20.6146L28.0112 33.9443L34.8746 29.9452Z" fill="white"/>
</g>
<g opacity="0.2">
<path d="M26.2761 34.8486L30.9254 22.0386L25.0818 25.3904L24.0525 28.2267L26.0176 34.9963L26.2761 34.8486Z" fill="white"/>
</g>
</svg>
