<svg width="924" height="886" viewBox="0 0 924 886" fill="none" xmlns="http://www.w3.org/2000/svg">
<g clip-path="url(#clip0)">
<path opacity="0.1" d="M903.511 750.898C911.318 743.091 902.282 721.399 883.33 702.447C864.378 683.495 842.686 674.459 834.879 682.266C827.073 690.073 836.108 711.765 855.06 730.717C874.012 749.669 895.704 758.704 903.511 750.898Z" fill="#1890FF"/>
<path d="M872.63 719.75C878.556 719.75 883.36 713.459 883.36 705.7C883.36 697.94 878.556 691.65 872.63 691.65C866.704 691.65 861.9 697.94 861.9 705.7C861.9 713.459 866.704 719.75 872.63 719.75Z" fill="#3F3D56"/>
<path d="M872.63 702.58C878.556 702.58 883.36 696.29 883.36 688.53C883.36 680.77 878.556 674.48 872.63 674.48C866.704 674.48 861.9 680.77 861.9 688.53C861.9 696.29 866.704 702.58 872.63 702.58Z" fill="#3F3D56"/>
<path d="M872.63 685.41C878.556 685.41 883.36 679.12 883.36 671.36C883.36 663.6 878.556 657.31 872.63 657.31C866.704 657.31 861.9 663.6 861.9 671.36C861.9 679.12 866.704 685.41 872.63 685.41Z" fill="#3F3D56"/>
<path d="M872.63 668.24C878.556 668.24 883.36 661.95 883.36 654.19C883.36 646.431 878.556 640.14 872.63 640.14C866.704 640.14 861.9 646.431 861.9 654.19C861.9 661.95 866.704 668.24 872.63 668.24Z" fill="#3F3D56"/>
<path d="M872.63 651.07C878.556 651.07 883.36 644.78 883.36 637.02C883.36 629.26 878.556 622.97 872.63 622.97C866.704 622.97 861.9 629.26 861.9 637.02C861.9 644.78 866.704 651.07 872.63 651.07Z" fill="#3F3D56"/>
<path d="M872.63 633.9C878.556 633.9 883.36 627.61 883.36 619.85C883.36 612.09 878.556 605.8 872.63 605.8C866.704 605.8 861.9 612.09 861.9 619.85C861.9 627.61 866.704 633.9 872.63 633.9Z" fill="#3F3D56"/>
<path d="M872.63 616.73C878.556 616.73 883.36 610.439 883.36 602.68C883.36 594.92 878.556 588.63 872.63 588.63C866.704 588.63 861.9 594.92 861.9 602.68C861.9 610.439 866.704 616.73 872.63 616.73Z" fill="#3F3D56"/>
<path d="M912.8 485.18C914.268 483.315 915.605 481.351 916.8 479.3L888.6 474.67L919.1 474.89C922.026 468.525 923.623 461.631 923.795 454.628C923.967 447.625 922.71 440.661 920.1 434.16L879.19 455.39L916.9 427.65C913.367 421.535 908.613 416.214 902.934 412.018C897.254 407.822 890.771 404.841 883.889 403.26C877.006 401.68 869.872 401.535 862.931 402.833C855.99 404.132 849.391 406.846 843.545 410.807C837.699 414.768 832.732 419.892 828.954 425.857C825.175 431.822 822.666 438.502 821.583 445.48C820.499 452.458 820.865 459.585 822.658 466.415C824.45 473.245 827.63 479.633 832 485.18C829.714 488.083 827.749 491.224 826.14 494.55L862.74 513.55L823.74 500.45C821.001 508.551 820.325 517.207 821.773 525.635C823.22 534.063 826.745 541.997 832.03 548.72C826.066 556.302 822.357 565.409 821.325 574.999C820.293 584.59 821.981 594.277 826.195 602.954C830.409 611.631 836.98 618.946 845.156 624.065C853.332 629.183 862.784 631.897 872.43 631.897C882.076 631.897 891.527 629.183 899.703 624.065C907.879 618.946 914.45 611.631 918.665 602.954C922.879 594.277 924.567 584.59 923.535 574.999C922.503 565.409 918.793 556.302 912.83 548.72C919.955 539.659 923.829 528.467 923.829 516.94C923.829 505.413 919.955 494.221 912.83 485.16L912.8 485.18Z" fill="#1890FF"/>
<path opacity="0.1" d="M821 516.96C820.981 528.49 824.857 539.689 832 548.74C826.037 556.322 822.327 565.429 821.295 575.019C820.263 584.61 821.951 594.297 826.165 602.974C830.38 611.651 836.95 618.967 845.127 624.085C853.303 629.203 862.754 631.917 872.4 631.917C882.046 631.917 891.497 629.203 899.674 624.085C907.85 618.967 914.421 611.651 918.635 602.974C922.849 594.297 924.537 584.61 923.505 575.019C922.473 565.429 918.764 556.322 912.8 548.74C919.69 540 821 511.19 821 516.96Z" fill="black"/>
<path d="M846.97 0V720L602.97 686L306.36 746.51L303.97 747L67.9702 682V56L312.97 0L580.97 56L591.16 53.85L846.97 0Z" fill="#444053"/>
<path d="M805.97 39.3201V683.53L587.66 653.11L322.27 707.25L320.13 707.68L108.97 649.53V89.4201L328.19 39.3201L567.97 89.4201L577.09 87.5001L805.97 39.3201Z" fill="white"/>
<path opacity="0.1" d="M602.97 686L306.36 746.51L312.97 0L580.97 56L591.16 53.85L602.97 686Z" fill="black"/>
<g opacity="0.3">
<path opacity="0.3" d="M573.35 138L573.47 347.5H660.47V261.5H809.47L826.97 239.06" stroke="#444053" stroke-width="3" stroke-miterlimit="10"/>
<path opacity="0.3" d="M88.9702 204.5H412.47L432.47 195.5H440.47V397.5H580.47L586.47 415.5V506.5H694.47V619" stroke="#444053" stroke-width="3" stroke-miterlimit="10"/>
<path opacity="0.3" d="M483.2 619V397.5" stroke="#444053" stroke-width="3" stroke-miterlimit="10"/>
<path opacity="0.3" d="M826.97 559.66H483.2" stroke="#444053" stroke-width="3" stroke-miterlimit="10"/>
<path opacity="0.3" d="M740.87 138V619" stroke="#444053" stroke-width="3" stroke-miterlimit="10"/>
<path opacity="0.3" d="M87.9702 517.14H826.97" stroke="#444053" stroke-width="3" stroke-miterlimit="10"/>
<path opacity="0.3" d="M177.91 619V138" stroke="#444053" stroke-width="3" stroke-miterlimit="10"/>
<path opacity="0.3" d="M349.69 138V619" stroke="#444053" stroke-width="3" stroke-miterlimit="10"/>
<path opacity="0.3" d="M88.9702 259.5L660.47 261.5" stroke="#444053" stroke-width="3" stroke-miterlimit="10"/>
<path opacity="0.3" d="M255.3 138.87V619" stroke="#444053" stroke-width="3" stroke-miterlimit="10"/>
<path opacity="0.3" d="M87.9702 370.82H349.69L483.2 517.14" stroke="#444053" stroke-width="3" stroke-miterlimit="10"/>
<path opacity="0.3" d="M512.12 138V397.5" stroke="#444053" stroke-width="3" stroke-miterlimit="10"/>
<path opacity="0.3" d="M483.2 443.98H826.97" stroke="#444053" stroke-width="3" stroke-miterlimit="10"/>
</g>
<path d="M585.97 442H484.97V398L580.47 397.5L586.47 414.5L585.97 442Z" fill="#1890FF"/>
<path d="M535.97 214C521.309 214 507.248 219.824 496.881 230.191C486.514 240.558 480.69 254.619 480.69 269.28C480.69 299.81 535.97 399 535.97 399C535.97 399 591.25 299.85 591.25 269.28C591.25 254.619 585.426 240.558 575.059 230.191C564.692 219.824 550.631 214 535.97 214V214ZM535.97 292.86C531.16 292.86 526.458 291.434 522.458 288.761C518.459 286.089 515.342 282.291 513.501 277.847C511.66 273.403 511.179 268.513 512.117 263.795C513.056 259.078 515.372 254.744 518.773 251.343C522.174 247.942 526.508 245.626 531.225 244.687C535.943 243.749 540.833 244.231 545.277 246.071C549.721 247.912 553.519 251.029 556.191 255.029C558.864 259.028 560.29 263.73 560.29 268.54C560.287 274.988 557.724 281.172 553.163 285.73C548.603 290.289 542.418 292.85 535.97 292.85V292.86Z" fill="#1890FF"/>
<path opacity="0.1" d="M535.97 214C521.309 214 507.248 219.824 496.881 230.191C486.514 240.558 480.69 254.619 480.69 269.28C480.69 299.81 535.97 399 535.97 399C535.97 399 591.25 299.85 591.25 269.28C591.25 254.619 585.426 240.558 575.059 230.191C564.692 219.824 550.631 214 535.97 214V214ZM535.97 292.86C531.16 292.86 526.458 291.434 522.458 288.761C518.459 286.089 515.342 282.291 513.501 277.847C511.66 273.403 511.179 268.513 512.117 263.795C513.056 259.078 515.372 254.744 518.773 251.343C522.174 247.942 526.508 245.626 531.225 244.687C535.943 243.749 540.833 244.231 545.277 246.071C549.721 247.912 553.519 251.029 556.191 255.029C558.864 259.028 560.29 263.73 560.29 268.54C560.287 274.988 557.724 281.172 553.163 285.73C548.603 290.289 542.418 292.85 535.97 292.85V292.86Z" fill="black"/>
<path d="M535.97 222C521.309 222 507.248 227.824 496.881 238.191C486.514 248.558 480.69 262.619 480.69 277.28C480.69 307.81 535.97 407 535.97 407C535.97 407 591.25 307.85 591.25 277.28C591.25 262.619 585.426 248.558 575.059 238.191C564.692 227.824 550.631 222 535.97 222V222ZM535.97 300.86C531.16 300.86 526.458 299.434 522.458 296.761C518.459 294.089 515.342 290.291 513.501 285.847C511.66 281.403 511.179 276.513 512.117 271.795C513.056 267.078 515.372 262.744 518.773 259.343C522.174 255.942 526.508 253.626 531.225 252.687C535.943 251.749 540.833 252.231 545.277 254.071C549.721 255.912 553.519 259.029 556.191 263.029C558.864 267.028 560.29 271.73 560.29 276.54C560.287 282.988 557.724 289.172 553.163 293.73C548.603 298.289 542.418 300.85 535.97 300.85V300.86Z" fill="#1890FF"/>
<path opacity="0.1" d="M517.233 746.075C534.2 738.768 545.515 727.178 542.505 720.188C539.494 713.198 523.299 713.455 506.332 720.763C489.365 728.07 478.05 739.66 481.06 746.65C484.071 753.64 500.266 753.382 517.233 746.075Z" fill="#1890FF"/>
<path d="M511.39 737.65C515.477 737.65 518.79 733.316 518.79 727.97C518.79 722.624 515.477 718.29 511.39 718.29C507.303 718.29 503.99 722.624 503.99 727.97C503.99 733.316 507.303 737.65 511.39 737.65Z" fill="#3F3D56"/>
<path d="M511.39 725.81C515.477 725.81 518.79 721.476 518.79 716.13C518.79 710.784 515.477 706.45 511.39 706.45C507.303 706.45 503.99 710.784 503.99 716.13C503.99 721.476 507.303 725.81 511.39 725.81Z" fill="#3F3D56"/>
<path d="M511.39 713.98C515.477 713.98 518.79 709.646 518.79 704.3C518.79 698.954 515.477 694.62 511.39 694.62C507.303 694.62 503.99 698.954 503.99 704.3C503.99 709.646 507.303 713.98 511.39 713.98Z" fill="#3F3D56"/>
<path d="M511.39 702.15C515.477 702.15 518.79 697.816 518.79 692.47C518.79 687.124 515.477 682.79 511.39 682.79C507.303 682.79 503.99 687.124 503.99 692.47C503.99 697.816 507.303 702.15 511.39 702.15Z" fill="#3F3D56"/>
<path d="M511.39 690.31C515.477 690.31 518.79 685.976 518.79 680.63C518.79 675.284 515.477 670.95 511.39 670.95C507.303 670.95 503.99 675.284 503.99 680.63C503.99 685.976 507.303 690.31 511.39 690.31Z" fill="#3F3D56"/>
<path d="M511.39 678.48C515.477 678.48 518.79 674.146 518.79 668.8C518.79 663.454 515.477 659.12 511.39 659.12C507.303 659.12 503.99 663.454 503.99 668.8C503.99 674.146 507.303 678.48 511.39 678.48Z" fill="#3F3D56"/>
<path d="M511.39 666.65C515.477 666.65 518.79 662.316 518.79 656.97C518.79 651.624 515.477 647.29 511.39 647.29C507.303 647.29 503.99 651.624 503.99 656.97C503.99 662.316 507.303 666.65 511.39 666.65Z" fill="#3F3D56"/>
<path d="M483.7 575.98C482.691 574.71 481.769 573.374 480.94 571.98L500.38 568.78L479.38 568.94C477.366 564.553 476.267 559.801 476.15 554.975C476.033 550.149 476.901 545.35 478.7 540.87L506.9 555.45L480.9 536.33C483.335 532.117 486.612 528.451 490.526 525.561C494.44 522.67 498.908 520.617 503.65 519.528C508.393 518.44 513.309 518.34 518.092 519.235C522.874 520.131 527.422 522.001 531.45 524.731C535.478 527.461 538.9 530.991 541.504 535.101C544.108 539.212 545.837 543.815 546.584 548.623C547.331 553.431 547.079 558.342 545.845 563.048C544.611 567.755 542.42 572.157 539.41 575.98C540.97 577.984 542.311 580.15 543.41 582.44L518.2 595.55L545.1 586.55C546.989 592.133 547.456 598.099 546.459 603.908C545.462 609.717 543.032 615.186 539.39 619.82C543.501 625.046 546.059 631.323 546.771 637.934C547.483 644.546 546.32 651.224 543.415 657.205C540.511 663.186 535.981 668.23 530.345 671.758C524.709 675.286 518.194 677.158 511.545 677.158C504.895 677.158 498.38 675.286 492.744 671.758C487.108 668.23 482.579 663.186 479.674 657.205C476.769 651.224 475.607 644.546 476.318 637.934C477.03 631.323 479.588 625.046 483.7 619.82C478.789 613.574 476.119 605.86 476.119 597.915C476.119 589.97 478.789 582.256 483.7 576.01V575.98Z" fill="#1890FF"/>
<path opacity="0.1" d="M546.97 597.85C546.983 605.799 544.312 613.519 539.39 619.76C543.501 624.986 546.059 631.263 546.771 637.875C547.483 644.486 546.32 651.164 543.415 657.145C540.511 663.126 535.981 668.17 530.345 671.698C524.709 675.226 518.194 677.098 511.545 677.098C504.895 677.098 498.38 675.226 492.744 671.698C487.108 668.17 482.579 663.126 479.674 657.145C476.769 651.164 475.607 644.486 476.318 637.875C477.03 631.263 479.588 624.986 483.7 619.76C478.95 613.76 546.97 593.91 546.97 597.85Z" fill="black"/>
<path opacity="0.1" d="M82.51 728.896C90.3166 721.09 81.2813 699.397 62.3292 680.445C43.377 661.493 21.6848 652.458 13.8782 660.264C6.07164 668.071 15.1069 689.763 34.059 708.715C53.0112 727.667 74.7034 736.703 82.51 728.896Z" fill="#1890FF"/>
<path d="M51.6299 697.75C57.5559 697.75 62.3599 691.459 62.3599 683.7C62.3599 675.94 57.5559 669.65 51.6299 669.65C45.7039 669.65 40.8999 675.94 40.8999 683.7C40.8999 691.459 45.7039 697.75 51.6299 697.75Z" fill="#3F3D56"/>
<path d="M51.6299 680.58C57.5559 680.58 62.3599 674.29 62.3599 666.53C62.3599 658.77 57.5559 652.48 51.6299 652.48C45.7039 652.48 40.8999 658.77 40.8999 666.53C40.8999 674.29 45.7039 680.58 51.6299 680.58Z" fill="#3F3D56"/>
<path d="M51.6299 663.41C57.5559 663.41 62.3599 657.12 62.3599 649.36C62.3599 641.6 57.5559 635.31 51.6299 635.31C45.7039 635.31 40.8999 641.6 40.8999 649.36C40.8999 657.12 45.7039 663.41 51.6299 663.41Z" fill="#3F3D56"/>
<path d="M51.6299 646.24C57.5559 646.24 62.3599 639.95 62.3599 632.19C62.3599 624.431 57.5559 618.14 51.6299 618.14C45.7039 618.14 40.8999 624.431 40.8999 632.19C40.8999 639.95 45.7039 646.24 51.6299 646.24Z" fill="#3F3D56"/>
<path d="M51.6299 629.07C57.5559 629.07 62.3599 622.78 62.3599 615.02C62.3599 607.26 57.5559 600.97 51.6299 600.97C45.7039 600.97 40.8999 607.26 40.8999 615.02C40.8999 622.78 45.7039 629.07 51.6299 629.07Z" fill="#3F3D56"/>
<path d="M51.6299 611.9C57.5559 611.9 62.3599 605.61 62.3599 597.85C62.3599 590.09 57.5559 583.8 51.6299 583.8C45.7039 583.8 40.8999 590.09 40.8999 597.85C40.8999 605.61 45.7039 611.9 51.6299 611.9Z" fill="#3F3D56"/>
<path d="M51.6299 594.73C57.5559 594.73 62.3599 588.439 62.3599 580.68C62.3599 572.92 57.5559 566.63 51.6299 566.63C45.7039 566.63 40.8999 572.92 40.8999 580.68C40.8999 588.439 45.7039 594.73 51.6299 594.73Z" fill="#3F3D56"/>
<path d="M91.7998 463.18C93.268 461.315 94.6046 459.351 95.7998 457.3L67.5998 452.67L98.0998 452.89C101.026 446.525 102.623 439.631 102.795 432.628C102.967 425.625 101.71 418.661 99.0998 412.16L58.1898 433.39L95.8998 405.65C92.3675 399.535 87.6134 394.214 81.9339 390.018C76.2544 385.822 69.7713 382.841 62.8889 381.26C56.0064 379.68 48.8723 379.535 41.9312 380.833C34.9901 382.132 28.3909 384.846 22.5451 388.807C16.6992 392.768 11.7322 397.892 7.95356 403.857C4.17495 409.822 1.66579 416.502 0.582576 423.48C-0.500639 430.458 -0.134689 437.585 1.65759 444.415C3.44986 451.245 6.63005 457.633 10.9998 463.18C8.7139 466.083 6.74911 469.224 5.13984 472.55L41.7398 491.55L2.73983 478.45C0.00140953 486.551 -0.674654 495.207 0.772777 503.635C2.22021 512.063 5.74549 519.997 11.0298 526.72C5.06632 534.302 1.35657 543.409 0.324748 552.999C-0.707073 562.59 0.980668 572.277 5.19502 580.954C9.40937 589.631 15.9802 596.946 24.1563 602.065C32.3324 607.183 41.7838 609.897 51.4298 609.897C61.0759 609.897 70.5272 607.183 78.7033 602.065C86.8794 596.946 93.4503 589.631 97.6646 580.954C101.879 572.277 103.567 562.59 102.535 552.999C101.503 543.409 97.7933 534.302 91.8298 526.72C98.9554 517.659 102.829 506.467 102.829 494.94C102.829 483.413 98.9554 472.221 91.8298 463.16L91.7998 463.18Z" fill="#1890FF"/>
<path opacity="0.1" d="M7.19105e-05 494.96C-0.0192531 506.49 3.85694 517.689 11.0001 526.74C5.03655 534.322 1.3268 543.429 0.294979 553.019C-0.736843 562.61 0.950899 572.297 5.16525 580.974C9.3796 589.651 15.9505 596.967 24.1266 602.085C32.3027 607.203 41.754 609.917 51.4001 609.917C61.0461 609.917 70.4975 607.203 78.6736 602.085C86.8497 596.967 93.4205 589.651 97.6349 580.974C101.849 572.297 103.537 562.61 102.505 553.019C101.473 543.429 97.7636 534.322 91.8001 526.74C98.6901 518 7.19105e-05 489.19 7.19105e-05 494.96Z" fill="black"/>
</g>
<path d="M220.289 820.646L229.023 795.43H233.433L222.095 826H218.525L207.208 795.43H211.597L220.289 820.646ZM245.442 826.42C242.363 826.42 239.857 825.412 237.926 823.396C235.994 821.367 235.028 818.658 235.028 815.271V814.557C235.028 812.304 235.455 810.295 236.309 808.531C237.177 806.754 238.381 805.368 239.92 804.374C241.474 803.366 243.154 802.862 244.959 802.862C247.913 802.862 250.208 803.835 251.846 805.781C253.484 807.726 254.303 810.512 254.303 814.137V815.754H238.913C238.969 817.993 239.619 819.806 240.865 821.192C242.125 822.564 243.721 823.25 245.652 823.25C247.024 823.25 248.186 822.97 249.138 822.41C250.09 821.85 250.922 821.108 251.636 820.184L254.009 822.032C252.105 824.957 249.25 826.42 245.442 826.42ZM244.959 806.054C243.392 806.054 242.076 806.628 241.012 807.775C239.948 808.909 239.291 810.505 239.039 812.562H250.418V812.269C250.306 810.295 249.775 808.769 248.823 807.691C247.871 806.6 246.583 806.054 244.959 806.054ZM263.037 826H259.132V803.282H263.037V826ZM263.079 793.771H267.782L262.155 799.944H259.027L263.079 793.771ZM278.553 823.25C279.939 823.25 281.15 822.83 282.186 821.99C283.221 821.15 283.795 820.1 283.907 818.84H287.582C287.512 820.142 287.064 821.381 286.238 822.557C285.412 823.732 284.306 824.67 282.92 825.37C281.549 826.07 280.093 826.42 278.553 826.42C275.46 826.42 272.996 825.391 271.163 823.333C269.343 821.262 268.433 818.434 268.433 814.851V814.2C268.433 811.989 268.839 810.022 269.651 808.3C270.463 806.579 271.625 805.242 273.136 804.29C274.662 803.338 276.461 802.862 278.532 802.862C281.08 802.862 283.193 803.625 284.873 805.151C286.567 806.677 287.47 808.657 287.582 811.093H283.907C283.795 809.623 283.235 808.419 282.228 807.481C281.234 806.53 280.002 806.054 278.532 806.054C276.559 806.054 275.026 806.768 273.934 808.195C272.856 809.609 272.317 811.66 272.317 814.347V815.082C272.317 817.7 272.856 819.715 273.934 821.129C275.012 822.543 276.552 823.25 278.553 823.25ZM305.974 823.753C304.462 825.531 302.244 826.42 299.318 826.42C296.897 826.42 295.049 825.72 293.775 824.32C292.516 822.907 291.879 820.821 291.865 818.063V803.282H295.749V817.958C295.749 821.402 297.149 823.124 299.948 823.124C302.916 823.124 304.889 822.018 305.869 819.806V803.282H309.753V826H306.058L305.974 823.753ZM319.895 826H316.01V793.75H319.895V826ZM325.102 814.431C325.102 812.206 325.535 810.204 326.403 808.426C327.285 806.649 328.503 805.277 330.057 804.311C331.624 803.345 333.409 802.862 335.411 802.862C338.504 802.862 341.003 803.933 342.906 806.075C344.824 808.216 345.783 811.065 345.783 814.62V814.893C345.783 817.105 345.356 819.092 344.502 820.856C343.662 822.606 342.451 823.97 340.87 824.95C339.302 825.93 337.496 826.42 335.453 826.42C332.373 826.42 329.875 825.349 327.957 823.208C326.053 821.066 325.102 818.231 325.102 814.704V814.431ZM329.007 814.893C329.007 817.413 329.588 819.435 330.75 820.961C331.925 822.487 333.493 823.25 335.453 823.25C337.426 823.25 338.994 822.48 340.156 820.94C341.318 819.386 341.898 817.217 341.898 814.431C341.898 811.94 341.304 809.924 340.114 808.384C338.938 806.831 337.37 806.054 335.411 806.054C333.493 806.054 331.946 806.817 330.771 808.342C329.595 809.868 329.007 812.052 329.007 814.893ZM374.547 819.974C374.547 818.924 374.148 818.112 373.351 817.539C372.567 816.951 371.188 816.447 369.214 816.027C367.255 815.607 365.694 815.103 364.532 814.515C363.384 813.927 362.531 813.227 361.971 812.416C361.425 811.604 361.152 810.638 361.152 809.518C361.152 807.656 361.936 806.082 363.503 804.794C365.085 803.506 367.101 802.862 369.55 802.862C372.126 802.862 374.211 803.527 375.807 804.857C377.417 806.187 378.222 807.887 378.222 809.959H374.316C374.316 808.895 373.861 807.978 372.952 807.208C372.056 806.439 370.922 806.054 369.55 806.054C368.137 806.054 367.031 806.362 366.233 806.978C365.435 807.593 365.036 808.398 365.036 809.392C365.036 810.33 365.407 811.037 366.149 811.513C366.891 811.989 368.228 812.444 370.159 812.877C372.105 813.311 373.68 813.829 374.883 814.431C376.087 815.033 376.976 815.761 377.55 816.615C378.138 817.455 378.432 818.483 378.432 819.701C378.432 821.731 377.62 823.361 375.996 824.593C374.372 825.811 372.266 826.42 369.676 826.42C367.857 826.42 366.247 826.098 364.847 825.454C363.447 824.81 362.349 823.914 361.551 822.767C360.767 821.605 360.375 820.352 360.375 819.008H364.259C364.329 820.31 364.847 821.346 365.813 822.116C366.793 822.872 368.081 823.25 369.676 823.25C371.146 823.25 372.322 822.956 373.204 822.368C374.099 821.766 374.547 820.968 374.547 819.974ZM392.919 826.42C389.84 826.42 387.334 825.412 385.402 823.396C383.471 821.367 382.505 818.658 382.505 815.271V814.557C382.505 812.304 382.932 810.295 383.786 808.531C384.653 806.754 385.857 805.368 387.397 804.374C388.951 803.366 390.63 802.862 392.436 802.862C395.389 802.862 397.685 803.835 399.323 805.781C400.96 807.726 401.779 810.512 401.779 814.137V815.754H386.389C386.445 817.993 387.096 819.806 388.342 821.192C389.602 822.564 391.197 823.25 393.129 823.25C394.501 823.25 395.662 822.97 396.614 822.41C397.566 821.85 398.399 821.108 399.113 820.184L401.485 822.032C399.582 824.957 396.726 826.42 392.919 826.42ZM392.436 806.054C390.868 806.054 389.553 806.628 388.489 807.775C387.425 808.909 386.767 810.505 386.515 812.562H397.895V812.269C397.783 810.295 397.251 808.769 396.299 807.691C395.347 806.6 394.06 806.054 392.436 806.054ZM409.947 803.282L410.052 805.802C411.717 803.842 413.964 802.862 416.792 802.862C419.969 802.862 422.132 804.08 423.279 806.516C424.035 805.424 425.015 804.542 426.219 803.87C427.437 803.198 428.871 802.862 430.523 802.862C435.506 802.862 438.04 805.501 438.124 810.778V826H434.239V811.009C434.239 809.385 433.868 808.174 433.126 807.376C432.385 806.565 431.139 806.159 429.389 806.159C427.947 806.159 426.751 806.593 425.799 807.46C424.847 808.314 424.294 809.469 424.14 810.925V826H420.235V811.114C420.235 807.81 418.618 806.159 415.385 806.159C412.837 806.159 411.095 807.243 410.157 809.413V826H406.272V803.282H409.947ZM465.649 806.768C465.062 806.67 464.425 806.621 463.739 806.621C461.191 806.621 459.463 807.705 458.553 809.875V826H454.668V803.282H458.448L458.511 805.907C459.785 803.877 461.59 802.862 463.928 802.862C464.684 802.862 465.257 802.96 465.649 803.156V806.768ZM482.425 826C482.201 825.552 482.019 824.754 481.879 823.606C480.074 825.482 477.918 826.42 475.413 826.42C473.173 826.42 471.332 825.79 469.891 824.53C468.463 823.257 467.749 821.647 467.749 819.701C467.749 817.336 468.645 815.502 470.437 814.2C472.242 812.884 474.776 812.227 478.037 812.227H481.816V810.442C481.816 809.084 481.41 808.006 480.599 807.208C479.787 806.397 478.59 805.991 477.008 805.991C475.623 805.991 474.461 806.341 473.523 807.041C472.585 807.74 472.116 808.587 472.116 809.581H468.211C468.211 808.447 468.61 807.355 469.408 806.306C470.22 805.242 471.311 804.402 472.683 803.786C474.069 803.17 475.588 802.862 477.239 802.862C479.857 802.862 481.907 803.52 483.391 804.836C484.875 806.138 485.645 807.936 485.701 810.232V820.688C485.701 822.774 485.967 824.432 486.499 825.664V826H482.425ZM475.979 823.04C477.197 823.04 478.352 822.725 479.444 822.095C480.536 821.465 481.326 820.646 481.816 819.638V814.977H478.772C474.013 814.977 471.633 816.37 471.633 819.155C471.633 820.373 472.039 821.325 472.851 822.011C473.663 822.697 474.706 823.04 475.979 823.04ZM505.017 819.974C505.017 818.924 504.618 818.112 503.82 817.539C503.036 816.951 501.658 816.447 499.684 816.027C497.724 815.607 496.164 815.103 495.002 814.515C493.854 813.927 493 813.227 492.44 812.416C491.895 811.604 491.622 810.638 491.622 809.518C491.622 807.656 492.405 806.082 493.973 804.794C495.555 803.506 497.57 802.862 500.02 802.862C502.596 802.862 504.681 803.527 506.277 804.857C507.887 806.187 508.691 807.887 508.691 809.959H504.786C504.786 808.895 504.331 807.978 503.421 807.208C502.526 806.439 501.392 806.054 500.02 806.054C498.606 806.054 497.5 806.362 496.703 806.978C495.905 807.593 495.506 808.398 495.506 809.392C495.506 810.33 495.877 811.037 496.619 811.513C497.361 811.989 498.697 812.444 500.629 812.877C502.575 813.311 504.149 813.829 505.353 814.431C506.557 815.033 507.446 815.761 508.02 816.615C508.607 817.455 508.901 818.483 508.901 819.701C508.901 821.731 508.09 823.361 506.466 824.593C504.842 825.811 502.736 826.42 500.146 826.42C498.326 826.42 496.717 826.098 495.317 825.454C493.917 824.81 492.818 823.914 492.021 822.767C491.237 821.605 490.845 820.352 490.845 819.008H494.729C494.799 820.31 495.317 821.346 496.283 822.116C497.263 822.872 498.55 823.25 500.146 823.25C501.616 823.25 502.792 822.956 503.673 822.368C504.569 821.766 505.017 820.968 505.017 819.974ZM519.231 797.781V803.282H523.473V806.285H519.231V820.373C519.231 821.283 519.42 821.969 519.798 822.431C520.176 822.879 520.82 823.103 521.73 823.103C522.178 823.103 522.794 823.019 523.578 822.851V826C522.556 826.28 521.562 826.42 520.596 826.42C518.861 826.42 517.552 825.895 516.67 824.845C515.788 823.795 515.347 822.305 515.347 820.373V806.285H511.211V803.282H515.347V797.781H519.231ZM539.01 806.768C538.422 806.67 537.785 806.621 537.099 806.621C534.552 806.621 532.823 807.705 531.913 809.875V826H528.029V803.282H531.808L531.871 805.907C533.145 803.877 534.951 802.862 537.288 802.862C538.044 802.862 538.618 802.96 539.01 803.156V806.768ZM551.607 826.42C548.528 826.42 546.022 825.412 544.091 823.396C542.159 821.367 541.193 818.658 541.193 815.271V814.557C541.193 812.304 541.62 810.295 542.474 808.531C543.342 806.754 544.546 805.368 546.085 804.374C547.639 803.366 549.319 802.862 551.125 802.862C554.078 802.862 556.374 803.835 558.011 805.781C559.649 807.726 560.468 810.512 560.468 814.137V815.754H545.078C545.134 817.993 545.785 819.806 547.03 821.192C548.29 822.564 549.886 823.25 551.817 823.25C553.189 823.25 554.351 822.97 555.303 822.41C556.255 821.85 557.087 821.108 557.801 820.184L560.174 822.032C558.27 824.957 555.415 826.42 551.607 826.42ZM551.125 806.054C549.557 806.054 548.241 806.628 547.177 807.775C546.113 808.909 545.456 810.505 545.204 812.562H556.583V812.269C556.472 810.295 555.94 808.769 554.988 807.691C554.036 806.6 552.748 806.054 551.125 806.054ZM579.007 826C578.783 825.552 578.601 824.754 578.461 823.606C576.656 825.482 574.5 826.42 571.995 826.42C569.755 826.42 567.914 825.79 566.473 824.53C565.045 823.257 564.331 821.647 564.331 819.701C564.331 817.336 565.227 815.502 567.019 814.2C568.824 812.884 571.358 812.227 574.619 812.227H578.398V810.442C578.398 809.084 577.993 808.006 577.181 807.208C576.369 806.397 575.172 805.991 573.59 805.991C572.205 805.991 571.043 806.341 570.105 807.041C569.167 807.74 568.698 808.587 568.698 809.581H564.793C564.793 808.447 565.192 807.355 565.99 806.306C566.802 805.242 567.893 804.402 569.265 803.786C570.651 803.17 572.17 802.862 573.821 802.862C576.439 802.862 578.489 803.52 579.973 804.836C581.457 806.138 582.227 807.936 582.283 810.232V820.688C582.283 822.774 582.549 824.432 583.081 825.664V826H579.007ZM572.562 823.04C573.779 823.04 574.934 822.725 576.026 822.095C577.118 821.465 577.909 820.646 578.398 819.638V814.977H575.354C570.595 814.977 568.215 816.37 568.215 819.155C568.215 820.373 568.621 821.325 569.433 822.011C570.245 822.697 571.288 823.04 572.562 823.04ZM587.427 814.452C587.427 810.967 588.253 808.167 589.904 806.054C591.556 803.926 593.719 802.862 596.392 802.862C599.052 802.862 601.158 803.772 602.712 805.592V793.75H606.596V826H603.027L602.838 823.564C601.284 825.468 599.122 826.42 596.35 826.42C593.719 826.42 591.57 825.342 589.904 823.187C588.253 821.031 587.427 818.217 587.427 814.746V814.452ZM591.311 814.893C591.311 817.469 591.843 819.484 592.907 820.94C593.971 822.396 595.44 823.124 597.316 823.124C599.779 823.124 601.578 822.018 602.712 819.806V809.371C601.55 807.229 599.765 806.159 597.358 806.159C595.454 806.159 593.971 806.894 592.907 808.363C591.843 809.833 591.311 812.01 591.311 814.893ZM611.614 814.431C611.614 812.206 612.048 810.204 612.916 808.426C613.798 806.649 615.016 805.277 616.569 804.311C618.137 803.345 619.922 802.862 621.923 802.862C625.017 802.862 627.515 803.933 629.419 806.075C631.337 808.216 632.295 811.065 632.295 814.62V814.893C632.295 817.105 631.868 819.092 631.015 820.856C630.175 822.606 628.964 823.97 627.382 824.95C625.815 825.93 624.009 826.42 621.965 826.42C618.886 826.42 616.387 825.349 614.47 823.208C612.566 821.066 611.614 818.231 611.614 814.704V814.431ZM615.52 814.893C615.52 817.413 616.1 819.435 617.262 820.961C618.438 822.487 620.006 823.25 621.965 823.25C623.939 823.25 625.507 822.48 626.668 820.94C627.83 819.386 628.411 817.217 628.411 814.431C628.411 811.94 627.816 809.924 626.626 808.384C625.451 806.831 623.883 806.054 621.923 806.054C620.006 806.054 618.459 806.817 617.283 808.342C616.107 809.868 615.52 812.052 615.52 814.893ZM648.147 806.768C647.56 806.67 646.923 806.621 646.237 806.621C643.689 806.621 641.961 807.705 641.051 809.875V826H637.167V803.282H640.946L641.009 805.907C642.283 803.877 644.088 802.862 646.426 802.862C647.182 802.862 647.756 802.96 648.147 803.156V806.768ZM661.375 814.431C661.375 812.206 661.809 810.204 662.677 808.426C663.559 806.649 664.776 805.277 666.33 804.311C667.898 803.345 669.682 802.862 671.684 802.862C674.778 802.862 677.276 803.933 679.18 806.075C681.097 808.216 682.056 811.065 682.056 814.62V814.893C682.056 817.105 681.629 819.092 680.775 820.856C679.936 822.606 678.725 823.97 677.143 824.95C675.575 825.93 673.77 826.42 671.726 826.42C668.647 826.42 666.148 825.349 664.23 823.208C662.327 821.066 661.375 818.231 661.375 814.704V814.431ZM665.28 814.893C665.28 817.413 665.861 819.435 667.023 820.961C668.199 822.487 669.766 823.25 671.726 823.25C673.7 823.25 675.267 822.48 676.429 820.94C677.591 819.386 678.172 817.217 678.172 814.431C678.172 811.94 677.577 809.924 676.387 808.384C675.211 806.831 673.644 806.054 671.684 806.054C669.766 806.054 668.22 806.817 667.044 808.342C665.868 809.868 665.28 812.052 665.28 814.893ZM700.953 823.753C699.441 825.531 697.222 826.42 694.297 826.42C691.875 826.42 690.028 825.72 688.754 824.32C687.494 822.907 686.857 820.821 686.843 818.063V803.282H690.728V817.958C690.728 821.402 692.127 823.124 694.927 823.124C697.894 823.124 699.868 822.018 700.848 819.806V803.282H704.732V826H701.037L700.953 823.753ZM73.0645 853.282L73.1904 856.138C74.9261 853.954 77.1937 852.862 79.9932 852.862C84.7943 852.862 87.2158 855.571 87.2578 860.988V876H83.3735V860.967C83.3595 859.329 82.9816 858.118 82.2397 857.334C81.5119 856.551 80.3711 856.159 78.8174 856.159C77.5576 856.159 76.4518 856.495 75.5 857.167C74.5482 857.838 73.8063 858.72 73.2744 859.812V876H69.3901V853.282H73.0645ZM107.141 876C106.917 875.552 106.735 874.754 106.595 873.606C104.79 875.482 102.634 876.42 100.128 876.42C97.8888 876.42 96.0482 875.79 94.6064 874.53C93.1787 873.257 92.4648 871.647 92.4648 869.701C92.4648 867.336 93.3607 865.502 95.1523 864.2C96.958 862.884 99.4915 862.227 102.753 862.227H106.532V860.442C106.532 859.084 106.126 858.006 105.314 857.208C104.503 856.397 103.306 855.991 101.724 855.991C100.338 855.991 99.1766 856.341 98.2388 857.041C97.3009 857.74 96.832 858.587 96.832 859.581H92.9268C92.9268 858.447 93.3257 857.355 94.1235 856.306C94.9354 855.242 96.0272 854.402 97.3989 853.786C98.7847 853.17 100.303 852.862 101.955 852.862C104.573 852.862 106.623 853.52 108.107 854.836C109.591 856.138 110.361 857.936 110.417 860.232V870.688C110.417 872.774 110.682 874.432 111.214 875.664V876H107.141ZM100.695 873.04C101.913 873.04 103.068 872.725 104.16 872.095C105.251 871.465 106.042 870.646 106.532 869.638V864.977H103.488C98.7287 864.977 96.3491 866.37 96.3491 869.155C96.3491 870.373 96.755 871.325 97.5669 872.011C98.3787 872.697 99.4215 873.04 100.695 873.04ZM109.829 844.422C109.829 845.934 109.395 847.158 108.527 848.096C107.673 849.034 106.602 849.503 105.314 849.503C104.741 849.503 104.244 849.433 103.824 849.293C103.404 849.153 102.851 848.866 102.165 848.432C101.493 847.998 101.003 847.739 100.695 847.655C100.401 847.557 100.058 847.508 99.6665 847.508C99.0926 847.508 98.6027 847.732 98.1968 848.18C97.7909 848.614 97.5879 849.174 97.5879 849.86L94.9844 849.713C94.9844 848.215 95.4043 846.976 96.2441 845.997C97.098 845.017 98.1758 844.527 99.4775 844.527C99.9674 844.527 100.408 844.597 100.8 844.737C101.192 844.877 101.724 845.15 102.396 845.556C103.068 845.962 103.579 846.228 103.929 846.354C104.293 846.479 104.692 846.542 105.125 846.542C105.727 846.542 106.224 846.305 106.616 845.829C107.022 845.353 107.225 844.8 107.225 844.17L109.829 844.422ZM115.477 864.431C115.477 862.206 115.91 860.204 116.778 858.426C117.66 856.649 118.878 855.277 120.432 854.311C121.999 853.345 123.784 852.862 125.786 852.862C128.879 852.862 131.378 853.933 133.281 856.075C135.199 858.216 136.158 861.065 136.158 864.62V864.893C136.158 867.105 135.731 869.092 134.877 870.856C134.037 872.606 132.826 873.97 131.245 874.95C129.677 875.93 127.871 876.42 125.828 876.42C122.748 876.42 120.25 875.349 118.332 873.208C116.428 871.066 115.477 868.231 115.477 864.704V864.431ZM119.382 864.893C119.382 867.413 119.963 869.435 121.125 870.961C122.3 872.487 123.868 873.25 125.828 873.25C127.801 873.25 129.369 872.48 130.531 870.94C131.693 869.386 132.273 867.217 132.273 864.431C132.273 861.94 131.679 859.924 130.489 858.384C129.313 856.831 127.745 856.054 125.786 856.054C123.868 856.054 122.321 856.817 121.146 858.342C119.97 859.868 119.382 862.052 119.382 864.893ZM153.605 876V856.285H150.015V853.282H153.605V850.952C153.605 848.516 154.256 846.633 155.558 845.304C156.86 843.974 158.701 843.309 161.08 843.309C161.976 843.309 162.865 843.428 163.747 843.666L163.537 846.815C162.879 846.689 162.179 846.626 161.437 846.626C160.177 846.626 159.204 846.997 158.519 847.739C157.833 848.467 157.49 849.517 157.49 850.889V853.282H162.34V856.285H157.49V876H153.605ZM165.615 864.431C165.615 862.206 166.049 860.204 166.917 858.426C167.799 856.649 169.017 855.277 170.57 854.311C172.138 853.345 173.923 852.862 175.924 852.862C179.018 852.862 181.516 853.933 183.42 856.075C185.338 858.216 186.296 861.065 186.296 864.62V864.893C186.296 867.105 185.869 869.092 185.016 870.856C184.176 872.606 182.965 873.97 181.383 874.95C179.816 875.93 178.01 876.42 175.966 876.42C172.887 876.42 170.388 875.349 168.471 873.208C166.567 871.066 165.615 868.231 165.615 864.704V864.431ZM169.521 864.893C169.521 867.413 170.101 869.435 171.263 870.961C172.439 872.487 174.007 873.25 175.966 873.25C177.94 873.25 179.508 872.48 180.669 870.94C181.831 869.386 182.412 867.217 182.412 864.431C182.412 861.94 181.817 859.924 180.627 858.384C179.452 856.831 177.884 856.054 175.924 856.054C174.007 856.054 172.46 856.817 171.284 858.342C170.108 859.868 169.521 862.052 169.521 864.893ZM195.388 876H191.503V853.282H195.388V876ZM191.188 847.256C191.188 846.626 191.377 846.095 191.755 845.661C192.147 845.227 192.721 845.01 193.477 845.01C194.233 845.01 194.807 845.227 195.199 845.661C195.591 846.095 195.787 846.626 195.787 847.256C195.787 847.886 195.591 848.411 195.199 848.831C194.807 849.251 194.233 849.461 193.477 849.461C192.721 849.461 192.147 849.251 191.755 848.831C191.377 848.411 191.188 847.886 191.188 847.256ZM231.48 864.893C231.48 868.35 230.689 871.136 229.107 873.25C227.526 875.363 225.384 876.42 222.683 876.42C219.925 876.42 217.756 875.545 216.174 873.795V884.734H212.29V853.282H215.838L216.027 855.802C217.609 853.842 219.806 852.862 222.62 852.862C225.349 852.862 227.505 853.891 229.086 855.949C230.682 858.006 231.48 860.869 231.48 864.536V864.893ZM227.596 864.452C227.596 861.891 227.05 859.868 225.958 858.384C224.866 856.901 223.368 856.159 221.465 856.159C219.113 856.159 217.35 857.201 216.174 859.287V870.142C217.336 872.214 219.113 873.25 221.507 873.25C223.368 873.25 224.845 872.515 225.937 871.045C227.043 869.561 227.596 867.364 227.596 864.452ZM235.406 864.431C235.406 862.206 235.84 860.204 236.708 858.426C237.59 856.649 238.808 855.277 240.361 854.311C241.929 853.345 243.714 852.862 245.715 852.862C248.809 852.862 251.307 853.933 253.211 856.075C255.129 858.216 256.087 861.065 256.087 864.62V864.893C256.087 867.105 255.66 869.092 254.807 870.856C253.967 872.606 252.756 873.97 251.174 874.95C249.607 875.93 247.801 876.42 245.757 876.42C242.678 876.42 240.179 875.349 238.262 873.208C236.358 871.066 235.406 868.231 235.406 864.704V864.431ZM239.312 864.893C239.312 867.413 239.892 869.435 241.054 870.961C242.23 872.487 243.798 873.25 245.757 873.25C247.731 873.25 249.299 872.48 250.46 870.94C251.622 869.386 252.203 867.217 252.203 864.431C252.203 861.94 251.608 859.924 250.418 858.384C249.243 856.831 247.675 856.054 245.715 856.054C243.798 856.054 242.251 856.817 241.075 858.342C239.899 859.868 239.312 862.052 239.312 864.893ZM274.186 869.974C274.186 868.924 273.787 868.112 272.989 867.539C272.205 866.951 270.827 866.447 268.853 866.027C266.893 865.607 265.333 865.103 264.171 864.515C263.023 863.927 262.169 863.227 261.609 862.416C261.063 861.604 260.791 860.638 260.791 859.518C260.791 857.656 261.574 856.082 263.142 854.794C264.724 853.506 266.739 852.862 269.189 852.862C271.764 852.862 273.85 853.527 275.446 854.857C277.056 856.187 277.86 857.887 277.86 859.959H273.955C273.955 858.895 273.5 857.978 272.59 857.208C271.694 856.439 270.561 856.054 269.189 856.054C267.775 856.054 266.669 856.362 265.872 856.978C265.074 857.593 264.675 858.398 264.675 859.392C264.675 860.33 265.046 861.037 265.788 861.513C266.529 861.989 267.866 862.444 269.798 862.877C271.743 863.311 273.318 863.829 274.522 864.431C275.726 865.033 276.615 865.761 277.188 866.615C277.776 867.455 278.07 868.483 278.07 869.701C278.07 871.731 277.258 873.361 275.635 874.593C274.011 875.811 271.904 876.42 269.315 876.42C267.495 876.42 265.886 876.098 264.486 875.454C263.086 874.81 261.987 873.914 261.189 872.767C260.406 871.605 260.014 870.352 260.014 869.008H263.898C263.968 870.31 264.486 871.346 265.452 872.116C266.431 872.872 267.719 873.25 269.315 873.25C270.785 873.25 271.96 872.956 272.842 872.368C273.738 871.766 274.186 870.968 274.186 869.974ZM296.358 869.974C296.358 868.924 295.959 868.112 295.161 867.539C294.377 866.951 292.999 866.447 291.025 866.027C289.065 865.607 287.505 865.103 286.343 864.515C285.195 863.927 284.341 863.227 283.781 862.416C283.235 861.604 282.962 860.638 282.962 859.518C282.962 857.656 283.746 856.082 285.314 854.794C286.896 853.506 288.911 852.862 291.361 852.862C293.936 852.862 296.022 853.527 297.618 854.857C299.227 856.187 300.032 857.887 300.032 859.959H296.127C296.127 858.895 295.672 857.978 294.762 857.208C293.866 856.439 292.733 856.054 291.361 856.054C289.947 856.054 288.841 856.362 288.043 856.978C287.246 857.593 286.847 858.398 286.847 859.392C286.847 860.33 287.218 861.037 287.959 861.513C288.701 861.989 290.038 862.444 291.97 862.877C293.915 863.311 295.49 863.829 296.694 864.431C297.898 865.033 298.786 865.761 299.36 866.615C299.948 867.455 300.242 868.483 300.242 869.701C300.242 871.731 299.43 873.361 297.807 874.593C296.183 875.811 294.076 876.42 291.487 876.42C289.667 876.42 288.057 876.098 286.658 875.454C285.258 874.81 284.159 873.914 283.361 872.767C282.577 871.605 282.186 870.352 282.186 869.008H286.07C286.14 870.31 286.658 871.346 287.624 872.116C288.603 872.872 289.891 873.25 291.487 873.25C292.957 873.25 294.132 872.956 295.014 872.368C295.91 871.766 296.358 870.968 296.358 869.974ZM309.522 876H305.617V853.282H309.522V876ZM309.564 843.771H314.268L308.641 849.944H305.512L309.564 843.771ZM323.422 870.73L329.049 853.282H333.017L324.871 876H321.91L313.68 853.282H317.648L323.422 870.73ZM345.888 876.42C342.808 876.42 340.303 875.412 338.371 873.396C336.439 871.367 335.474 868.658 335.474 865.271V864.557C335.474 862.304 335.901 860.295 336.754 858.531C337.622 856.754 338.826 855.368 340.366 854.374C341.919 853.366 343.599 852.862 345.405 852.862C348.358 852.862 350.654 853.835 352.292 855.781C353.929 857.726 354.748 860.512 354.748 864.137V865.754H339.358C339.414 867.993 340.065 869.806 341.311 871.192C342.57 872.564 344.166 873.25 346.098 873.25C347.469 873.25 348.631 872.97 349.583 872.41C350.535 871.85 351.368 871.108 352.082 870.184L354.454 872.032C352.55 874.957 349.695 876.42 345.888 876.42ZM345.405 856.054C343.837 856.054 342.521 856.628 341.458 857.775C340.394 858.909 339.736 860.505 339.484 862.562H350.864V862.269C350.752 860.295 350.22 858.769 349.268 857.691C348.316 856.6 347.028 856.054 345.405 856.054ZM363.482 876H359.598V843.75H363.482V876ZM379.439 864.452C379.439 860.967 380.265 858.167 381.917 856.054C383.569 853.926 385.731 852.862 388.405 852.862C391.064 852.862 393.171 853.772 394.725 855.592V843.75H398.609V876H395.04L394.851 873.564C393.297 875.468 391.134 876.42 388.363 876.42C385.731 876.42 383.583 875.342 381.917 873.187C380.265 871.031 379.439 868.217 379.439 864.746V864.452ZM383.324 864.893C383.324 867.469 383.856 869.484 384.919 870.94C385.983 872.396 387.453 873.124 389.329 873.124C391.792 873.124 393.591 872.018 394.725 869.806V859.371C393.563 857.229 391.778 856.159 389.371 856.159C387.467 856.159 385.983 856.894 384.919 858.363C383.856 859.833 383.324 862.01 383.324 864.893ZM414.083 876.42C411.004 876.42 408.498 875.412 406.566 873.396C404.635 871.367 403.669 868.658 403.669 865.271V864.557C403.669 862.304 404.096 860.295 404.95 858.531C405.818 856.754 407.021 855.368 408.561 854.374C410.115 853.366 411.794 852.862 413.6 852.862C416.554 852.862 418.849 853.835 420.487 855.781C422.125 857.726 422.943 860.512 422.943 864.137V865.754H407.553C407.609 867.993 408.26 869.806 409.506 871.192C410.766 872.564 412.361 873.25 414.293 873.25C415.665 873.25 416.826 872.97 417.778 872.41C418.73 871.85 419.563 871.108 420.277 870.184L422.649 872.032C420.746 874.957 417.89 876.42 414.083 876.42ZM413.6 856.054C412.032 856.054 410.717 856.628 409.653 857.775C408.589 858.909 407.931 860.505 407.679 862.562H419.059V862.269C418.947 860.295 418.415 858.769 417.463 857.691C416.512 856.6 415.224 856.054 413.6 856.054ZM432.728 847.781V853.282H436.969V856.285H432.728V870.373C432.728 871.283 432.917 871.969 433.294 872.431C433.672 872.879 434.316 873.103 435.226 873.103C435.674 873.103 436.29 873.019 437.074 872.851V876C436.052 876.28 435.058 876.42 434.092 876.42C432.357 876.42 431.048 875.895 430.166 874.845C429.284 873.795 428.843 872.305 428.843 870.373V856.285H424.707V853.282H428.843V847.781H432.728ZM450.952 876.42C447.873 876.42 445.367 875.412 443.436 873.396C441.504 871.367 440.538 868.658 440.538 865.271V864.557C440.538 862.304 440.965 860.295 441.819 858.531C442.687 856.754 443.89 855.368 445.43 854.374C446.984 853.366 448.664 852.862 450.469 852.862C453.423 852.862 455.718 853.835 457.356 855.781C458.994 857.726 459.812 860.512 459.812 864.137V865.754H444.422C444.478 867.993 445.129 869.806 446.375 871.192C447.635 872.564 449.23 873.25 451.162 873.25C452.534 873.25 453.696 872.97 454.647 872.41C455.599 871.85 456.432 871.108 457.146 870.184L459.519 872.032C457.615 874.957 454.759 876.42 450.952 876.42ZM450.469 856.054C448.902 856.054 447.586 856.628 446.522 857.775C445.458 858.909 444.8 860.505 444.548 862.562H455.928V862.269C455.816 860.295 455.284 858.769 454.333 857.691C453.381 856.6 452.093 856.054 450.469 856.054ZM475.308 856.768C474.72 856.67 474.083 856.621 473.397 856.621C470.849 856.621 469.121 857.705 468.211 859.875V876H464.327V853.282H468.106L468.169 855.907C469.443 853.877 471.248 852.862 473.586 852.862C474.342 852.862 474.916 852.96 475.308 853.156V856.768ZM482.551 853.282L482.656 855.802C484.322 853.842 486.569 852.862 489.396 852.862C492.573 852.862 494.736 854.08 495.884 856.516C496.64 855.424 497.619 854.542 498.823 853.87C500.041 853.198 501.476 852.862 503.127 852.862C508.111 852.862 510.644 855.501 510.728 860.778V876H506.844V861.009C506.844 859.385 506.473 858.174 505.731 857.376C504.989 856.565 503.743 856.159 501.994 856.159C500.552 856.159 499.355 856.593 498.403 857.46C497.451 858.314 496.899 859.469 496.745 860.925V876H492.839V861.114C492.839 857.81 491.223 856.159 487.989 856.159C485.442 856.159 483.699 857.243 482.761 859.413V876H478.877V853.282H482.551ZM520.827 876H516.943V853.282H520.827V876ZM516.628 847.256C516.628 846.626 516.817 846.095 517.195 845.661C517.587 845.227 518.161 845.01 518.917 845.01C519.672 845.01 520.246 845.227 520.638 845.661C521.03 846.095 521.226 846.626 521.226 847.256C521.226 847.886 521.03 848.411 520.638 848.831C520.246 849.251 519.672 849.461 518.917 849.461C518.161 849.461 517.587 849.251 517.195 848.831C516.817 848.411 516.628 847.886 516.628 847.256ZM530.737 853.282L530.863 856.138C532.599 853.954 534.867 852.862 537.666 852.862C542.467 852.862 544.889 855.571 544.931 860.988V876H541.046V860.967C541.032 859.329 540.654 858.118 539.913 857.334C539.185 856.551 538.044 856.159 536.49 856.159C535.23 856.159 534.125 856.495 533.173 857.167C532.221 857.838 531.479 858.72 530.947 859.812V876H527.063V853.282H530.737ZM564.814 876C564.59 875.552 564.408 874.754 564.268 873.606C562.462 875.482 560.307 876.42 557.801 876.42C555.562 876.42 553.721 875.79 552.279 874.53C550.852 873.257 550.138 871.647 550.138 869.701C550.138 867.336 551.034 865.502 552.825 864.2C554.631 862.884 557.164 862.227 560.426 862.227H564.205V860.442C564.205 859.084 563.799 858.006 562.987 857.208C562.175 856.397 560.979 855.991 559.397 855.991C558.011 855.991 556.849 856.341 555.912 857.041C554.974 857.74 554.505 858.587 554.505 859.581H550.6C550.6 858.447 550.999 857.355 551.796 856.306C552.608 855.242 553.7 854.402 555.072 853.786C556.458 853.17 557.976 852.862 559.628 852.862C562.245 852.862 564.296 853.52 565.78 854.836C567.264 856.138 568.033 857.936 568.089 860.232V870.688C568.089 872.774 568.355 874.432 568.887 875.664V876H564.814ZM558.368 873.04C559.586 873.04 560.741 872.725 561.833 872.095C562.924 871.465 563.715 870.646 564.205 869.638V864.977H561.161C556.402 864.977 554.022 866.37 554.022 869.155C554.022 870.373 554.428 871.325 555.24 872.011C556.052 872.697 557.094 873.04 558.368 873.04ZM585.159 856.768C584.571 856.67 583.934 856.621 583.249 856.621C580.701 856.621 578.972 857.705 578.062 859.875V876H574.178V853.282H577.958L578.021 855.907C579.294 853.877 581.1 852.862 583.438 852.862C584.193 852.862 584.767 852.96 585.159 853.156V856.768ZM613.441 876C613.217 875.552 613.035 874.754 612.895 873.606C611.089 875.482 608.934 876.42 606.428 876.42C604.189 876.42 602.348 875.79 600.906 874.53C599.479 873.257 598.765 871.647 598.765 869.701C598.765 867.336 599.66 865.502 601.452 864.2C603.258 862.884 605.791 862.227 609.053 862.227H612.832V860.442C612.832 859.084 612.426 858.006 611.614 857.208C610.802 856.397 609.606 855.991 608.024 855.991C606.638 855.991 605.476 856.341 604.539 857.041C603.601 857.74 603.132 858.587 603.132 859.581H599.227C599.227 858.447 599.625 857.355 600.423 856.306C601.235 855.242 602.327 854.402 603.699 853.786C605.084 853.17 606.603 852.862 608.255 852.862C610.872 852.862 612.923 853.52 614.407 854.836C615.89 856.138 616.66 857.936 616.716 860.232V870.688C616.716 872.774 616.982 874.432 617.514 875.664V876H613.441ZM606.995 873.04C608.213 873.04 609.368 872.725 610.459 872.095C611.551 871.465 612.342 870.646 612.832 869.638V864.977H609.788C605.028 864.977 602.649 866.37 602.649 869.155C602.649 870.373 603.055 871.325 603.867 872.011C604.679 872.697 605.721 873.04 606.995 873.04ZM637.691 876H633.807V843.75H637.691V876ZM642.898 864.431C642.898 862.206 643.332 860.204 644.2 858.426C645.082 856.649 646.3 855.277 647.854 854.311C649.421 853.345 651.206 852.862 653.208 852.862C656.301 852.862 658.799 853.933 660.703 856.075C662.621 858.216 663.58 861.065 663.58 864.62V864.893C663.58 867.105 663.153 869.092 662.299 870.856C661.459 872.606 660.248 873.97 658.667 874.95C657.099 875.93 655.293 876.42 653.25 876.42C650.17 876.42 647.672 875.349 645.754 873.208C643.85 871.066 642.898 868.231 642.898 864.704V864.431ZM646.804 864.893C646.804 867.413 647.385 869.435 648.546 870.961C649.722 872.487 651.29 873.25 653.25 873.25C655.223 873.25 656.791 872.48 657.953 870.94C659.114 869.386 659.695 867.217 659.695 864.431C659.695 861.94 659.1 859.924 657.911 858.384C656.735 856.831 655.167 856.054 653.208 856.054C651.29 856.054 649.743 856.817 648.567 858.342C647.392 859.868 646.804 862.052 646.804 864.893ZM677.563 873.25C678.949 873.25 680.16 872.83 681.195 871.99C682.231 871.15 682.805 870.1 682.917 868.84H686.591C686.521 870.142 686.073 871.381 685.248 872.557C684.422 873.732 683.316 874.67 681.93 875.37C680.558 876.07 679.103 876.42 677.563 876.42C674.47 876.42 672.006 875.391 670.172 873.333C668.353 871.262 667.443 868.434 667.443 864.851V864.2C667.443 861.989 667.849 860.022 668.661 858.3C669.472 856.579 670.634 855.242 672.146 854.29C673.672 853.338 675.47 852.862 677.542 852.862C680.09 852.862 682.203 853.625 683.883 855.151C685.576 856.677 686.479 858.657 686.591 861.093H682.917C682.805 859.623 682.245 858.419 681.237 857.481C680.243 856.53 679.012 856.054 677.542 856.054C675.568 856.054 674.036 856.768 672.944 858.195C671.866 859.609 671.327 861.66 671.327 864.347V865.082C671.327 867.7 671.866 869.715 672.944 871.129C674.022 872.543 675.561 873.25 677.563 873.25ZM704.984 876C704.76 875.552 704.578 874.754 704.438 873.606C702.632 875.482 700.477 876.42 697.971 876.42C695.732 876.42 693.891 875.79 692.449 874.53C691.021 873.257 690.308 871.647 690.308 869.701C690.308 867.336 691.203 865.502 692.995 864.2C694.801 862.884 697.334 862.227 700.596 862.227H704.375V860.442C704.375 859.084 703.969 858.006 703.157 857.208C702.345 856.397 701.149 855.991 699.567 855.991C698.181 855.991 697.019 856.341 696.082 857.041C695.144 857.74 694.675 858.587 694.675 859.581H690.77C690.77 858.447 691.168 857.355 691.966 856.306C692.778 855.242 693.87 854.402 695.242 853.786C696.627 853.17 698.146 852.862 699.798 852.862C702.415 852.862 704.466 853.52 705.95 854.836C707.433 856.138 708.203 857.936 708.259 860.232V870.688C708.259 872.774 708.525 874.432 709.057 875.664V876H704.984ZM698.538 873.04C699.756 873.04 700.911 872.725 702.002 872.095C703.094 871.465 703.885 870.646 704.375 869.638V864.977H701.331C696.571 864.977 694.192 866.37 694.192 869.155C694.192 870.373 694.598 871.325 695.41 872.011C696.222 872.697 697.264 873.04 698.538 873.04ZM718.568 876H714.684V843.75H718.568V876ZM729.024 876H725.14V853.282H729.024V876ZM724.825 847.256C724.825 846.626 725.014 846.095 725.392 845.661C725.784 845.227 726.358 845.01 727.114 845.01C727.87 845.01 728.444 845.227 728.835 845.661C729.227 846.095 729.423 846.626 729.423 847.256C729.423 847.886 729.227 848.411 728.835 848.831C728.444 849.251 727.87 849.461 727.114 849.461C726.358 849.461 725.784 849.251 725.392 848.831C725.014 848.411 724.825 847.886 724.825 847.256ZM738.914 872.83H752.204V876H734.168V873.145L746.703 856.495H734.357V853.282H751.574V856.033L738.914 872.83ZM770.618 876C770.394 875.552 770.212 874.754 770.072 873.606C768.266 875.482 766.111 876.42 763.605 876.42C761.365 876.42 759.525 875.79 758.083 874.53C756.655 873.257 755.941 871.647 755.941 869.701C755.941 867.336 756.837 865.502 758.629 864.2C760.435 862.884 762.968 862.227 766.229 862.227H770.009V860.442C770.009 859.084 769.603 858.006 768.791 857.208C767.979 856.397 766.782 855.991 765.201 855.991C763.815 855.991 762.653 856.341 761.715 857.041C760.778 857.74 760.309 858.587 760.309 859.581H756.403C756.403 858.447 756.802 857.355 757.6 856.306C758.412 855.242 759.504 854.402 760.875 853.786C762.261 853.17 763.78 852.862 765.432 852.862C768.049 852.862 770.1 853.52 771.583 854.836C773.067 856.138 773.837 857.936 773.893 860.232V870.688C773.893 872.774 774.159 874.432 774.691 875.664V876H770.618ZM764.172 873.04C765.39 873.04 766.544 872.725 767.636 872.095C768.728 871.465 769.519 870.646 770.009 869.638V864.977H766.964C762.205 864.977 759.826 866.37 759.826 869.155C759.826 870.373 760.232 871.325 761.043 872.011C761.855 872.697 762.898 873.04 764.172 873.04ZM789.094 873.25C790.48 873.25 791.691 872.83 792.727 871.99C793.762 871.15 794.336 870.1 794.448 868.84H798.123C798.053 870.142 797.605 871.381 796.779 872.557C795.953 873.732 794.847 874.67 793.461 875.37C792.09 876.07 790.634 876.42 789.094 876.42C786.001 876.42 783.537 875.391 781.704 873.333C779.884 871.262 778.974 868.434 778.974 864.851V864.2C778.974 861.989 779.38 860.022 780.192 858.3C781.004 856.579 782.166 855.242 783.677 854.29C785.203 853.338 787.002 852.862 789.073 852.862C791.621 852.862 793.734 853.625 795.414 855.151C797.108 856.677 798.011 858.657 798.123 861.093H794.448C794.336 859.623 793.776 858.419 792.769 857.481C791.775 856.53 790.543 856.054 789.073 856.054C787.1 856.054 785.567 856.768 784.475 858.195C783.397 859.609 782.858 861.66 782.858 864.347V865.082C782.858 867.7 783.397 869.715 784.475 871.129C785.553 872.543 787.093 873.25 789.094 873.25ZM789.724 876.189L789.472 877.281C791.614 877.659 792.685 878.869 792.685 880.913C792.685 882.271 792.125 883.342 791.005 884.125C789.885 884.923 788.324 885.322 786.323 885.322L786.176 883.076C787.282 883.076 788.135 882.894 788.737 882.53C789.353 882.166 789.661 881.655 789.661 880.997C789.661 880.381 789.437 879.926 788.989 879.632C788.541 879.338 787.632 879.128 786.26 879.002L786.932 876.189H789.724ZM816.515 876C816.291 875.552 816.109 874.754 815.969 873.606C814.164 875.482 812.008 876.42 809.502 876.42C807.263 876.42 805.422 875.79 803.98 874.53C802.553 873.257 801.839 871.647 801.839 869.701C801.839 867.336 802.735 865.502 804.526 864.2C806.332 862.884 808.866 862.227 812.127 862.227H815.906V860.442C815.906 859.084 815.5 858.006 814.688 857.208C813.877 856.397 812.68 855.991 811.098 855.991C809.712 855.991 808.551 856.341 807.613 857.041C806.675 857.74 806.206 858.587 806.206 859.581H802.301C802.301 858.447 802.7 857.355 803.498 856.306C804.309 855.242 805.401 854.402 806.773 853.786C808.159 853.17 809.677 852.862 811.329 852.862C813.947 852.862 815.997 853.52 817.481 854.836C818.965 856.138 819.735 857.936 819.791 860.232V870.688C819.791 872.774 820.056 874.432 820.588 875.664V876H816.515ZM810.069 873.04C811.287 873.04 812.442 872.725 813.534 872.095C814.625 871.465 815.416 870.646 815.906 869.638V864.977H812.862C808.103 864.977 805.723 866.37 805.723 869.155C805.723 870.373 806.129 871.325 806.941 872.011C807.753 872.697 808.796 873.04 810.069 873.04ZM819.203 844.422C819.203 845.934 818.769 847.158 817.901 848.096C817.047 849.034 815.976 849.503 814.688 849.503C814.115 849.503 813.618 849.433 813.198 849.293C812.778 849.153 812.225 848.866 811.539 848.432C810.867 847.998 810.377 847.739 810.069 847.655C809.775 847.557 809.432 847.508 809.041 847.508C808.467 847.508 807.977 847.732 807.571 848.18C807.165 848.614 806.962 849.174 806.962 849.86L804.358 849.713C804.358 848.215 804.778 846.976 805.618 845.997C806.472 845.017 807.55 844.527 808.852 844.527C809.341 844.527 809.782 844.597 810.174 844.737C810.566 844.877 811.098 845.15 811.77 845.556C812.442 845.962 812.953 846.228 813.303 846.354C813.667 846.479 814.066 846.542 814.5 846.542C815.101 846.542 815.598 846.305 815.99 845.829C816.396 845.353 816.599 844.8 816.599 844.17L819.203 844.422ZM824.851 864.431C824.851 862.206 825.285 860.204 826.152 858.426C827.034 856.649 828.252 855.277 829.806 854.311C831.373 853.345 833.158 852.862 835.16 852.862C838.253 852.862 840.752 853.933 842.655 856.075C844.573 858.216 845.532 861.065 845.532 864.62V864.893C845.532 867.105 845.105 869.092 844.251 870.856C843.411 872.606 842.2 873.97 840.619 874.95C839.051 875.93 837.245 876.42 835.202 876.42C832.122 876.42 829.624 875.349 827.706 873.208C825.802 871.066 824.851 868.231 824.851 864.704V864.431ZM828.756 864.893C828.756 867.413 829.337 869.435 830.499 870.961C831.674 872.487 833.242 873.25 835.202 873.25C837.175 873.25 838.743 872.48 839.905 870.94C841.067 869.386 841.647 867.217 841.647 864.431C841.647 861.94 841.053 859.924 839.863 858.384C838.687 856.831 837.119 856.054 835.16 856.054C833.242 856.054 831.695 856.817 830.52 858.342C829.344 859.868 828.756 862.052 828.756 864.893ZM854.749 867.371H851.243L850.97 845.43H855.043L854.749 867.371ZM850.823 874.047C850.823 873.417 851.012 872.893 851.39 872.473C851.782 872.039 852.355 871.822 853.111 871.822C853.867 871.822 854.441 872.039 854.833 872.473C855.225 872.893 855.421 873.417 855.421 874.047C855.421 874.677 855.225 875.202 854.833 875.622C854.441 876.028 853.867 876.231 853.111 876.231C852.355 876.231 851.782 876.028 851.39 875.622C851.012 875.202 850.823 874.677 850.823 874.047Z" fill="#444053"/>
<defs>
<clipPath id="clip0">
<rect width="923.8" height="753.71" fill="white"/>
</clipPath>
</defs>
</svg>
